<?xml version="1.0" encoding="UTF-8" standalone="no"?>
<!-- Created with Inkscape (http://www.inkscape.org/) -->

<svg
   width="221.81183mm"
   height="137.46869mm"
   viewBox="0 0 221.81183 137.46869"
   version="1.1"
   id="svg29166"
   xml:space="preserve"
   sodipodi:docname="AccountPersonDelete.svg"
   inkscape:version="1.2.2 (732a01da63, 2022-12-09)"
   xmlns:inkscape="http://www.inkscape.org/namespaces/inkscape"
   xmlns:sodipodi="http://sodipodi.sourceforge.net/DTD/sodipodi-0.dtd"
   xmlns="http://www.w3.org/2000/svg"
   xmlns:svg="http://www.w3.org/2000/svg"><sodipodi:namedview
     id="namedview29168"
     pagecolor="#505050"
     bordercolor="#eeeeee"
     borderopacity="1"
     inkscape:showpageshadow="0"
     inkscape:pageopacity="0"
     inkscape:pagecheckerboard="0"
     inkscape:deskcolor="#505050"
     inkscape:document-units="mm"
     showgrid="false"
     inkscape:zoom="0.37282197"
     inkscape:cx="-92.537465"
     inkscape:cy="571.31826"
     inkscape:window-width="1920"
     inkscape:window-height="1017"
     inkscape:window-x="-8"
     inkscape:window-y="-8"
     inkscape:window-maximized="1"
     inkscape:current-layer="layer1" /><defs
     id="defs29163" /><g
     inkscape:label="Layer 1"
     inkscape:groupmode="layer"
     id="layer1"
     transform="translate(11.793486,-0.77434361)"><path
       id="path16023"
       inkscape:connector-curvature="0"
       d="m 42.395049,31.937926 c 2.11484,0 4.061167,0.408397 5.839553,1.225534 5.278574,2.656926 8.395329,7.706496 8.434968,13.337214 v 38.785994 c -0.990117,6.165932 -8.047648,4.489269 -8.218568,0 V 48.663515 c -0.628918,-2.088495 -4.661679,-1.222553 -4.758136,0 v 84.060395 c -1.0254,8.58355 -12.117066,6.06398 -12.399909,-0.14411 0,-17.15816 0,-34.316545 0,-51.474471 -0.709222,-3.320097 -5.376858,-1.811496 -5.479156,0.144227 0.197954,17.109472 0.144227,34.219974 0.144227,51.330244 -1.106166,8.53944 -12.143873,6.35449 -12.400019,0.14411 L 13.413894,48.663515 c -0.646445,-2.043469 -4.3833021,-1.259672 -4.4699101,0 v 36.623153 c -0.990233,6.165932 -8.04764315,4.489269 -8.21856325,0 V 46.500674 c 0.099778,-5.390607 2.07543115,-10.79095 6.77674825,-13.337214 1.538043,-0.817137 3.4124271,-1.225648 5.6232701,-1.225648 9.756498,1.14e-4 19.512996,1.14e-4 29.26961,1.14e-4 z M 42.249674,14.323832 c 0,7.483223 -6.066381,13.549603 -13.549602,13.549603 -7.483112,0 -13.549492,-6.06638 -13.549492,-13.549603 -1.12e-4,-7.4831094 6.066267,-13.54948839 13.549262,-13.54948839 7.483451,0 13.549832,6.06637899 13.549832,13.54948839 z"
       style="stroke-width:0.114557" /><g
       id="g30117"
       transform="translate(-4.0145417,-0.17272391)"><path
         style="fill:#aa599d;stroke:#c00000;stroke-width:5;stroke-dasharray:none;stroke-dashoffset:0;stroke-opacity:1"
         d="M -5.6138805,136.06385 71.037955,3.2989764"
         id="path29728" /><path
         style="fill:#aa599d;stroke:#c00000;stroke-width:5;stroke-dasharray:none;stroke-dashoffset:0;stroke-opacity:1"
         d="M 71.037954,136.06385 -5.6138799,3.2989766"
         id="path29728-0" /></g><path
       style="fill:#aa599d;stroke:#000000;stroke-width:4.99999;stroke-dasharray:none;stroke-dashoffset:0;stroke-opacity:1"
       d="M 67.795825,71.172017 H 120.48669"
       id="path30173" /><path
       sodipodi:type="star"
       style="fill:#aa599d;stroke:#000000;stroke-width:4.99999;stroke-dasharray:none;stroke-dashoffset:0;stroke-opacity:1"
       id="path30227"
       inkscape:flatsided="false"
       sodipodi:sides="3"
       sodipodi:cx="120.31079"
       sodipodi:cy="70.003578"
       sodipodi:r1="4.419487"
       sodipodi:r2="2.2097437"
       sodipodi:arg1="0"
       sodipodi:arg2="1.0471976"
       inkscape:rounded="0"
       inkscape:randomized="0"
       d="m 124.73028,70.003578 -3.31462,1.913694 -3.31461,1.913694 0,-3.827388 0,-3.827388 3.31461,1.913694 z"
       inkscape:transform-center-x="-1.1048702"
       transform="translate(-4.2777426,0.79208269)" /><g
       id="g30263"
       transform="translate(-13.129032,12.774194)"><g
         id="g29663"
         transform="matrix(0.14683373,0,0,0.14683373,143.95966,18.874201)">
	<path
   class="st0"
   d="m 484.398,225.656 c -9.922,0.516 -12.094,0.625 -26.594,1.375 -19.563,-32.344 -50.875,-61.594 -96.094,-79.219 -23.297,-9.109 -50.297,-15.125 -81.266,-16.875 -10.547,-0.594 -21.516,-0.688 -32.984,-0.25 -13.875,0.531 -26.953,2.313 -39.297,5.125 -6.031,1.359 -11.859,2.984 -17.5,4.781 -28.422,-20.328 -57.328,-23.594 -75.703,-23.031 -11.953,0.375 -8.094,1 -8.094,1 -2.797,0.344 -5.281,1.922 -6.797,4.281 -1.484,2.375 -1.859,5.281 -0.984,7.938 l 27.5,76.641 c 0,4.375 -4.375,10.922 -13.109,-7.094 -3.094,-6.406 -7.828,-2.641 -8.719,-1.5 -1.344,1.703 -2.625,3.422 -3.844,5.141 -25.359,35.625 -31.109,66.969 -55.844,76.781 l -2.125,0.813 c -15.516,5.969 -32.406,10.875 -29.438,25.703 2.734,13.672 10.656,55.203 13.953,65.141 6.219,18.609 12.703,23.844 24.438,31.406 6.453,4.156 13,8.078 19.656,11.922 v 0.016 c 20.375,11.703 41.953,22.266 65.953,33.609 6.391,10.547 12.609,25.156 17.094,36.266 3.078,7.656 5.344,13.688 6.25,15.531 3.109,6.188 7.766,10.844 21.734,10.844 13.938,0 21.703,0 31.016,0 9.297,0 12.406,-9.297 12.406,-20.156 0,-1.672 0,-3.797 0,-6.219 v -6.172 h 110.141 v 6.172 c 0,2.422 0,4.547 0,6.219 0,10.859 2.906,20.156 11.625,20.156 8.734,0 16.016,0 29.109,0 13.109,0 17.484,-4.656 20.391,-10.844 0.859,-1.844 2.984,-7.875 5.875,-15.531 h 0.016 c 11.25,-22.406 25.032,-46.5 43.157,-68.781 22.641,-26.531 37.156,-60.563 37.156,-101.219 0,-13.469 -1.891,-27.781 -5.813,-42.313 2.406,-3.625 7.672,-11.063 15.906,-20.156 11.751,-13.048 1.673,-28.032 -9.171,-27.501 z M 130.32,307.891 c -11.453,0 -20.75,-9.281 -20.75,-20.734 0,-11.484 9.297,-20.766 20.75,-20.766 11.469,0 20.75,9.281 20.75,20.766 0,11.452 -9.281,20.734 -20.75,20.734 z"
   id="path29659" />
	<path
   class="st0"
   d="m 241.007,98.594 c 8.906,1.594 17.406,-4.344 18.984,-13.25 v 0 c 2.75,-15.5 10.813,-28.547 22.016,-37.875 11.203,-9.313 25.5,-14.719 40.609,-14.719 3.719,0 7.438,0.328 11.203,1 l 0.047,0.016 c 15.484,2.75 28.531,10.781 37.859,21.984 9.297,11.234 14.703,25.5 14.703,40.625 0,3.703 -0.313,7.453 -1,11.25 -1.578,8.906 4.375,17.406 13.281,19 8.891,1.578 17.406,-4.375 18.984,-13.281 1.016,-5.688 1.5,-11.359 1.5,-16.969 0,-22.984 -8.234,-44.625 -22.266,-61.531 C 382.898,17.906 362.914,5.625 339.585,1.5 l 0.047,0.016 C 333.898,0.484 328.21,0 322.617,0 299.648,0 278.008,8.219 261.086,22.266 244.164,36.282 231.883,56.282 227.758,79.61 226.164,88.5 232.101,97 241.007,98.594 Z"
   id="path29661" />
</g><g
         id="g30255"
         transform="translate(-13.479251,3.1935484)"><path
           style="fill:#aa599d;stroke:#c00000;stroke-width:4.99999;stroke-dasharray:none;stroke-dashoffset:0;stroke-opacity:1"
           d="m 155.19758,13.439517 79.66129,79.661288"
           id="path30229" /><path
           style="fill:#aa599d;stroke:#c00000;stroke-width:4.99999;stroke-dasharray:none;stroke-dashoffset:0;stroke-opacity:1"
           d="M 234.85887,13.439517 155.19758,93.100805"
           id="path30229-9" /></g></g></g><style
     type="text/css"
     id="style29657">
<![CDATA[
	.st0{fill:#000000;}
]]>
</style></svg>
