<?xml version="1.0" encoding="UTF-8" standalone="no"?>
<!-- Created with Inkscape (http://www.inkscape.org/) -->

<svg
   width="363.7139mm"
   height="451.06247mm"
   viewBox="0 0 363.7139 451.06247"
   version="1.1"
   id="svg5"
   xml:space="preserve"
   inkscape:version="1.2.2 (732a01da63, 2022-12-09)"
   sodipodi:docname="communication.svg"
   xmlns:inkscape="http://www.inkscape.org/namespaces/inkscape"
   xmlns:sodipodi="http://sodipodi.sourceforge.net/DTD/sodipodi-0.dtd"
   xmlns="http://www.w3.org/2000/svg"
   xmlns:svg="http://www.w3.org/2000/svg"><sodipodi:namedview
     id="namedview7"
     pagecolor="#505050"
     bordercolor="#eeeeee"
     borderopacity="1"
     inkscape:showpageshadow="0"
     inkscape:pageopacity="0"
     inkscape:pagecheckerboard="0"
     inkscape:deskcolor="#505050"
     inkscape:document-units="mm"
     showgrid="false"
     inkscape:zoom="0.26362494"
     inkscape:cx="347.084"
     inkscape:cy="929.3506"
     inkscape:window-width="1920"
     inkscape:window-height="1017"
     inkscape:window-x="-8"
     inkscape:window-y="-8"
     inkscape:window-maximized="1"
     inkscape:current-layer="layer1" /><defs
     id="defs2" /><g
     inkscape:label="Layer 1"
     inkscape:groupmode="layer"
     id="layer1"
     transform="translate(-5.4751992,151.62898)"><g
       transform="matrix(0.03527778,0,0,-0.03527778,5.4751992,299.47245)"
       fill="#000000"
       stroke="none"
       id="g10"
       style="fill:#962444;fill-opacity:1"><path
         d="m 3614,12738 c -21,-29 -57,-62 -79,-74 -22,-12 -47,-29 -55,-37 -8,-8 -40,-17 -70,-20 -36,-4 -60,-13 -70,-25 -8,-11 -36,-30 -62,-42 -107,-52 -165,-126 -229,-288 -77,-199 -90,-279 -114,-737 -27,-508 -39,-612 -83,-717 -22,-51 -39,-75 -77,-105 -28,-22 -65,-57 -82,-79 -18,-21 -39,-47 -48,-56 -8,-10 -27,-18 -41,-18 -31,0 -228,-103 -262,-137 -12,-13 -31,-23 -41,-23 -10,0 -58,-19 -107,-41 -49,-23 -157,-68 -241,-100 -199,-76 -253,-104 -348,-182 -134,-109 -168,-153 -269,-354 -107,-215 -139,-306 -177,-503 -38,-200 -35,-616 7,-865 16,-95 58,-255 100,-377 27,-79 25,-112 -7,-149 -22,-26 -25,-100 -9,-243 13,-107 33,-156 90,-214 48,-50 101,-75 190,-93 64,-12 82,-28 95,-79 5,-21 -4,-36 -58,-90 -84,-87 -137,-166 -227,-345 -151,-297 -192,-446 -225,-819 -43,-489 -23,-809 76,-1242 46,-205 46,-199 12,-220 -85,-53 -114,-102 -138,-231 -16,-89 -20,-96 -120,-250 C 888,3896 806,3777 763,3718 591,3482 485,3278 323,2877 197,2563 136,2350 50,1928 2,1696 0,1679 0,1525 c 0,-184 13,-330 34,-380 9,-20 30,-44 50,-56 31,-18 35,-24 28,-47 -12,-45 -6,-194 11,-252 16,-55 48,-95 94,-119 53,-27 472,-69 589,-58 91,9 117,23 125,70 3,20 8,40 12,43 3,3 88,-29 189,-72 366,-154 536,-198 823,-213 287,-15 404,11 504,110 85,85 97,251 26,357 -47,70 -154,128 -447,242 l -188,73 -7,36 c -12,58 -8,247 7,368 12,100 12,120 -3,200 -30,154 -26,179 53,363 75,175 158,332 250,475 32,50 75,127 96,172 l 37,83 h 102 102 l 12,-147 C 2538,2290 2729,231 2747,96 l 6,-49 431,7 c 454,7 516,10 516,30 0,7 34,46 76,86 42,41 80,84 85,97 4,12 24,242 43,510 45,614 40,574 62,590 32,23 113,15 219,-23 199,-71 278,-93 402,-114 209,-36 409,-28 607,21 87,22 138,45 206,93 25,18 63,42 85,55 61,34 76,61 82,147 4,55 2,79 -8,92 -8,9 -23,34 -34,55 -46,92 -122,130 -393,198 -194,49 -296,88 -316,121 -7,11 -5,36 6,80 20,85 10,163 -42,313 -81,233 -90,266 -90,348 0,43 5,87 11,98 23,43 138,72 334,84 286,18 438,-79 500,-320 10,-39 26,-230 45,-555 81,-1354 101,-1660 110,-1722 12,-77 34,-151 58,-188 9,-14 18,-41 22,-60 5,-32 9,-36 45,-42 22,-3 67,-16 100,-28 57,-21 70,-22 260,-15 110,4 205,11 210,15 6,5 49,10 95,12 67,2 85,6 85,18 0,8 14,21 30,29 38,18 130,100 172,152 48,61 63,158 103,669 24,318 28,350 45,350 7,0 15,-6 18,-12 5,-15 228,-14 392,2 l 100,9 27,-32 27,-32 162,2 c 144,2 171,5 238,28 42,14 81,29 88,33 19,12 51,113 58,184 7,65 8,67 43,81 20,8 42,13 49,10 26,-10 36,-74 29,-185 -7,-100 -5,-111 15,-147 l 21,-39 -24,-42 c -14,-23 -73,-92 -132,-154 -126,-135 -126,-135 -396,-166 -231,-26 -235,-27 -294,-60 -50,-29 -51,-30 -84,-128 -32,-94 -33,-101 -22,-163 25,-143 69,-216 177,-290 39,-27 48,-29 142,-29 270,0 468,32 954,155 236,59 356,85 397,85 57,0 60,-1 65,-27 14,-66 21,-78 55,-90 109,-37 490,20 700,106 41,17 76,31 77,31 5,0 22,81 48,223 l 27,148 33,-7 c 28,-5 33,-3 43,23 17,46 21,73 36,249 42,485 43,627 11,1064 -29,400 -53,544 -141,847 -63,218 -88,290 -155,438 -57,128 -76,193 -99,342 -12,73 -36,113 -83,139 -15,9 -16,16 -7,63 19,99 14,125 -30,176 -22,25 -40,47 -40,49 0,14 41,134 85,245 50,129 134,434 169,616 51,263 70,495 70,885 v 335 l -27,88 c -15,49 -34,102 -43,119 -8,16 -14,32 -12,34 4,3 145,-32 210,-52 23,-7 35,-46 64,-218 32,-195 58,-248 138,-290 29,-15 30,-14 67,27 65,72 65,75 26,255 -40,181 -70,251 -130,304 l -42,36 16,34 c 9,18 24,67 34,108 l 18,76 -44,89 c -44,89 -45,91 -136,151 l -92,62 132,57 c 277,120 367,213 367,379 0,60 -25,108 -67,130 -37,19 -223,40 -276,32 -54,-9 -217,-95 -303,-160 -37,-28 -92,-80 -121,-116 -121,-146 -128,-154 -131,-139 -1,8 11,103 27,210 58,375 81,674 81,1064 0,319 -17,400 -151,706 -140,324 -230,476 -453,769 -101,133 -153,185 -226,227 -25,15 -58,38 -75,53 -38,35 -289,191 -378,237 -38,19 -132,63 -210,99 -180,82 -236,118 -254,161 -7,19 -25,38 -38,43 -19,7 -29,24 -44,77 -43,145 -45,180 -43,618 3,420 -3,536 -40,732 -18,100 -147,249 -290,334 -140,84 -139,84 -448,83 -318,-2 -393,-10 -547,-58 -145,-46 -193,-51 -306,-36 -51,7 -107,10 -123,6 -27,-8 -25,-9 36,-28 79,-25 71,-30 -75,-53 -60,-9 -124,-23 -140,-30 -37,-15 -159,-115 -151,-123 3,-3 41,11 83,31 75,35 220,66 243,52 20,-12 -5,-37 -71,-71 -38,-19 -69,-37 -69,-41 0,-4 12,-17 27,-28 l 26,-22 -26,-39 c -27,-39 -27,-39 -27,-237 0,-109 5,-229 10,-266 12,-72 2,-121 -23,-121 -25,0 -50,-37 -43,-64 5,-19 14,-25 39,-28 29,-3 32,-6 35,-39 4,-49 -22,-78 -110,-124 -110,-57 -148,-99 -148,-165 0,-36 68,-117 106,-126 13,-4 24,-12 24,-19 0,-13 26,-18 146,-31 72,-7 85,-24 73,-89 -19,-100 -5,-166 43,-197 13,-8 79,-36 148,-63 69,-26 141,-56 162,-66 37,-19 78,-63 78,-83 0,-8 -53,-11 -173,-11 -199,0 -213,-4 -204,-65 21,-136 50,-278 64,-311 19,-48 63,-73 143,-83 30,-4 66,-15 80,-26 l 25,-19 -130,-323 c -133,-331 -245,-570 -380,-808 -99,-173 -141,-235 -190,-277 -39,-34 -63,-62 -207,-253 -104,-137 -117,-145 -137,-78 -9,29 -32,60 -72,100 -74,72 -77,83 -119,423 -45,359 -73,492 -155,734 -74,221 -182,326 -465,451 -111,50 -117,54 -101,74 11,13 59,16 292,18 265,3 279,4 299,23 17,17 23,46 35,172 15,151 30,213 60,256 8,12 15,30 15,41 0,17 -5,18 -62,13 -149,-15 -359,-29 -363,-25 -16,15 17,51 88,95 86,54 142,79 294,133 133,47 129,41 125,153 -2,68 0,96 10,104 7,5 42,17 78,27 152,41 182,67 184,161 1,55 -15,73 -113,126 -91,49 -151,104 -188,175 -23,44 -25,54 -14,68 7,9 28,16 45,17 73,1 73,14 -2,49 -81,38 -70,12 -103,250 -26,196 -73,332 -156,462 -17,27 -17,28 11,57 15,16 25,34 22,40 -4,6 -34,11 -66,11 -62,0 -110,15 -110,34 0,7 34,29 76,49 42,21 75,40 73,42 -2,2 -40,-3 -84,-11 -44,-8 -112,-16 -151,-17 -76,-2 -95,6 -117,52 -12,25 -16,26 -130,32 -64,4 -124,9 -132,13 -9,3 -15,18 -15,40 0,19 -5,38 -10,41 -6,4 -29,-10 -52,-29 -23,-20 -47,-36 -53,-36 -38,0 -133,24 -148,38 -16,14 -18,14 -30,-2 -7,-10 -28,-18 -47,-19 -30,-2 -35,1 -38,23 -6,43 -19,44 -46,1 -24,-37 -30,-41 -66,-41 -21,0 -41,3 -43,8 -2,4 2,36 9,71 7,36 12,66 10,68 -2,2 -21,-20 -42,-49 z m 986,-688 c -8,-5 -18,-6 -24,-3 -5,4 -1,10 10,13 24,9 34,2 14,-10 z M 2283,10355 c -3,-9 -8,-14 -10,-11 -3,3 -2,9 2,15 9,16 15,13 8,-4 z M 6469,8537 c 11,-26 18,-47 15,-47 -5,0 -44,86 -44,97 0,12 9,-4 29,-50 z m 298,-489 c 87,-124 198,-240 387,-403 67,-58 68,-60 63,-101 -8,-74 -111,-253 -235,-409 -61,-77 -445,-463 -587,-591 -49,-44 -133,-115 -185,-156 -53,-42 -111,-93 -129,-114 l -34,-38 7,-80 c 3,-45 9,-91 12,-103 5,-17 2,-23 -9,-23 -23,0 -36,22 -56,93 -31,106 -54,146 -154,270 -117,146 -139,186 -216,407 -34,96 -84,234 -111,305 -49,132 -83,246 -75,253 9,9 215,-32 352,-69 l 144,-40 47,24 c 26,13 52,33 58,45 6,12 29,35 51,51 76,55 289,302 393,456 74,109 212,295 219,295 4,0 30,-33 58,-72 z M 4178,7675 c 30,-8 62,-21 72,-30 10,-9 35,-56 55,-103 70,-165 174,-361 351,-663 242,-415 324,-533 401,-580 21,-12 39,-23 40,-24 8,-5 -83,-253 -98,-268 -11,-10 -19,-27 -19,-38 0,-12 -8,-33 -19,-47 -10,-15 -31,-52 -46,-82 -28,-55 -28,-55 -16,-149 25,-202 103,-289 274,-307 37,-4 71,-12 76,-18 6,-7 -2,-39 -21,-86 -26,-62 -32,-93 -36,-180 l -4,-106 36,-73 c 32,-62 43,-75 79,-91 32,-14 49,-32 70,-70 32,-56 91,-105 140,-115 41,-9 57,-23 74,-62 22,-53 61,-67 168,-59 84,6 93,4 110,-14 57,-63 238,-36 327,48 34,32 98,139 126,212 30,79 48,149 72,284 25,139 53,220 83,241 30,21 94,18 147,-6 25,-12 73,-23 108,-26 34,-3 62,-7 62,-8 0,-1 -11,-27 -25,-58 -33,-72 -26,-87 73,-152 41,-27 77,-55 79,-61 8,-24 -34,-56 -97,-74 -44,-12 -64,-22 -61,-31 16,-65 13,-86 -23,-136 -41,-57 -51,-63 -91,-56 -27,6 -28,5 -20,-23 12,-46 8,-69 -30,-137 -19,-35 -35,-73 -35,-85 0,-28 44,-60 192,-139 67,-36 187,-107 266,-159 132,-86 142,-96 142,-124 0,-35 -21,-58 -92,-101 -44,-26 -48,-32 -48,-68 0,-30 -9,-51 -37,-88 -96,-126 -129,-153 -191,-153 -43,0 -44,-1 -29,-18 10,-10 17,-33 17,-51 0,-32 -62,-167 -97,-210 l -19,-23 -29,24 c -17,14 -102,73 -190,133 -181,123 -212,148 -230,189 -12,27 -17,29 -71,31 -62,1 -136,30 -344,133 l -95,48 1,46 v 46 l -45,-14 c -58,-17 -76,-12 -279,73 -86,36 -215,87 -287,114 -71,27 -136,56 -142,66 -7,9 -13,29 -13,45 0,32 -2,32 -45,16 -28,-10 -60,-4 -250,42 -128,32 -227,61 -241,73 -16,12 -24,29 -24,49 0,29 -1,30 -32,22 -74,-19 -161,-8 -393,50 -126,32 -238,62 -247,67 -33,18 -48,40 -42,64 l 6,24 -33,-16 c -48,-24 -160,-28 -259,-9 -178,34 -189,42 -166,120 8,25 11,46 8,46 -7,0 -35,-18 -88,-55 -24,-17 -48,-20 -178,-23 -131,-3 -363,11 -375,23 -14,14 172,221 240,267 30,20 72,42 94,47 22,6 46,15 54,20 21,14 5,41 -24,41 -14,0 -25,4 -25,9 0,27 18,42 87,67 l 75,29 -6,48 c -4,28 -2,56 5,70 13,25 100,117 111,117 4,0 24,-32 44,-71 40,-76 116,-151 170,-169 l 32,-11 -1,-98 c -2,-70 2,-105 13,-126 l 15,-28 100,8 c 55,5 123,8 150,7 28,-1 92,6 144,14 69,12 99,13 117,6 19,-9 35,-5 94,24 38,20 70,39 70,44 0,5 7,15 15,24 13,13 21,13 53,2 67,-24 99,-11 150,59 43,60 46,62 74,53 42,-15 134,-5 158,17 30,27 25,55 -22,126 -23,35 -72,127 -109,204 -98,203 -165,277 -320,349 -52,24 -175,81 -274,126 -200,91 -251,120 -342,192 -42,33 -63,57 -63,71 0,14 45,65 133,152 110,109 163,151 317,255 106,72 214,154 254,192 38,38 70,68 72,68 1,0 14,4 28,10 l 25,9 -21,52 c -14,33 -50,82 -96,131 -81,87 -95,113 -112,208 -6,36 -19,80 -27,98 -12,26 -15,52 -10,120 9,130 11,133 61,126 22,-3 65,-12 94,-19 z m 5906,-265 c 21,-8 26,-16 26,-43 0,-18 -7,-43 -16,-55 -27,-39 -186,-103 -386,-156 -154,-41 -168,-35 -91,40 94,92 270,195 364,213 61,12 74,12 103,1 z m -495,-480 c 108,-41 171,-89 225,-170 26,-40 20,-48 -42,-55 -115,-13 -174,24 -231,145 -33,69 -39,100 -18,100 6,0 36,-9 66,-20 z M 2981,5647 c 52,-34 109,-69 127,-76 17,-7 32,-19 32,-26 0,-7 -18,-30 -41,-51 -23,-22 -60,-59 -83,-84 -96,-104 -100,-107 -158,-120 l -57,-13 2,-50 c 2,-47 0,-51 -45,-91 -26,-23 -58,-61 -71,-86 -13,-25 -63,-99 -112,-165 -83,-113 -124,-184 -125,-213 0,-28 96,-43 383,-62 189,-13 543,-63 628,-90 33,-10 69,-26 79,-35 12,-11 20,-13 25,-6 16,28 179,-2 407,-73 195,-61 257,-85 280,-108 14,-14 36,-20 96,-22 161,-8 452,-98 452,-141 0,-7 4,-25 10,-40 l 10,-26 29,22 c 40,29 69,23 261,-58 333,-140 433,-191 436,-221 1,-7 2,-16 3,-21 0,-4 34,-11 75,-14 76,-5 148,-30 316,-108 92,-43 100,-53 100,-125 0,-29 16,-40 36,-24 50,42 207,-34 518,-249 32,-23 66,-41 75,-41 25,0 54,35 91,110 18,36 48,91 67,123 33,54 37,57 74,57 36,0 38,2 28,19 -16,24 -3,58 55,148 53,82 68,93 140,102 51,6 51,7 48,40 -1,19 12,75 29,126 37,109 35,150 -12,189 -62,52 -500,286 -535,286 -19,0 -18,11 10,73 15,34 39,67 65,87 27,22 47,50 60,84 41,109 38,106 101,106 72,0 97,21 64,54 -21,21 -12,46 37,102 21,25 39,54 39,64 0,14 -24,34 -80,66 -60,35 -80,52 -80,68 0,11 17,71 38,131 37,106 40,111 88,143 54,37 178,102 193,102 12,0 134,-231 190,-358 51,-116 107,-276 127,-362 9,-36 38,-190 65,-342 60,-344 85,-444 155,-618 l 55,-139 -39,-39 c -81,-81 -182,-225 -247,-352 -84,-166 -123,-267 -180,-470 -25,-90 -50,-171 -56,-181 -13,-25 -54,-24 -132,2 -128,43 -259,115 -507,279 -527,348 -1032,601 -1920,962 -408,166 -1188,366 -1653,425 -99,13 -217,17 -472,17 -328,1 -346,0 -500,-27 -87,-15 -172,-34 -189,-42 -16,-8 -32,-13 -35,-10 -9,10 19,77 114,270 147,300 293,511 550,795 87,96 198,223 248,283 50,59 98,107 107,107 10,0 60,-28 111,-63 z m 1520,-319 c 15,-28 5,-21 -21,15 -15,20 -17,27 -6,18 9,-8 22,-23 27,-33 z"
         id="path4"
         style="fill:#962444;fill-opacity:1" /><path
         d="m 5550,7240 c -23,-14 -5,-43 35,-57 22,-8 115,-34 207,-59 213,-56 251,-71 245,-95 -5,-17 1,-19 49,-19 59,0 175,-40 208,-71 20,-19 20,-21 -11,-80 -8,-14 66,7 99,28 l 37,25 58,-38 c 32,-21 73,-51 91,-66 37,-32 62,-36 61,-10 -1,30 -14,52 -40,70 -98,65 -129,94 -129,123 v 29 l -31,-19 -30,-19 -92,40 c -124,53 -122,51 -125,84 l -3,29 -70,-3 c -62,-3 -83,1 -177,36 -134,51 -351,91 -382,72 z"
         id="path6"
         style="fill:#962444;fill-opacity:1" /><path
         d="m 4646,6615 c -27,-19 -62,-37 -77,-40 -32,-7 -44,-20 -52,-55 -3,-14 -28,-49 -56,-79 l -49,-53 -79,5 c -43,2 -116,10 -163,17 -122,17 -152,7 -238,-80 -113,-113 -194,-230 -160,-230 6,0 73,60 147,134 l 136,135 130,-35 c 72,-18 151,-34 178,-34 40,0 49,4 58,24 6,13 21,28 34,34 13,6 54,35 92,64 38,29 87,61 110,72 37,16 40,21 30,37 -10,16 -7,28 16,69 25,44 26,50 10,49 -10,0 -40,-15 -67,-34 z"
         id="path8"
         style="fill:#962444;fill-opacity:1" /></g></g></svg>
