<?xml version="1.0" encoding="UTF-8" standalone="no"?>
<!-- Created with Inkscape (http://www.inkscape.org/) -->

<svg
   width="188.23981mm"
   height="71.477821mm"
   viewBox="0 0 188.23981 71.477821"
   version="1.1"
   id="svg4766"
   xml:space="preserve"
   inkscape:version="1.2.2 (732a01da63, 2022-12-09)"
   sodipodi:docname="containerj2ee.svg"
   xmlns:inkscape="http://www.inkscape.org/namespaces/inkscape"
   xmlns:sodipodi="http://sodipodi.sourceforge.net/DTD/sodipodi-0.dtd"
   xmlns="http://www.w3.org/2000/svg"
   xmlns:svg="http://www.w3.org/2000/svg"><sodipodi:namedview
     id="namedview4768"
     pagecolor="#505050"
     bordercolor="#eeeeee"
     borderopacity="1"
     inkscape:showpageshadow="0"
     inkscape:pageopacity="0"
     inkscape:pagecheckerboard="0"
     inkscape:deskcolor="#505050"
     inkscape:document-units="mm"
     showgrid="false"
     inkscape:zoom="8.4359982"
     inkscape:cx="410.56197"
     inkscape:cy="143.43294"
     inkscape:window-width="1920"
     inkscape:window-height="1017"
     inkscape:window-x="-8"
     inkscape:window-y="-8"
     inkscape:window-maximized="1"
     inkscape:current-layer="layer1" /><defs
     id="defs4763" /><g
     inkscape:label="Layer 1"
     inkscape:groupmode="layer"
     id="layer1"
     transform="translate(-5.5415184,-48.957661)"><g
       id="g33926"><g
         id="g447"
         transform="matrix(0.51370225,0,0,0.51370225,165.5277,67.947056)"><path
           fill="#000000"
           fill-opacity="0.701961"
           stroke-width="0.2"
           stroke-linejoin="round"
           d="m 38,33 c 9.384,0 16.9921,-2.0126 17,-4.4961 V 52.5 C 55,54.9853 47.3888,57 38,57 v -7.8421 l 0.0675,0.0021 1.1625,1.2537 c 0.3733,0.3892 0.7571,0.728 1.1513,1.0163 0.3941,0.2883 0.8062,0.5154 1.2362,0.6813 0.43,0.1658 0.9008,0.2487 1.4125,0.2487 L 44.1075,52.2913 44.8,52.155 v -2.07 L 44.5425,50.1663 44.25,50.2288 43.9487,50.2675 43.675,50.28 42.8237,50.215 42.0613,49.9813 41.3237,49.5213 40.55,48.7775 C 41.635,48.3892 42.4808,47.72 43.0875,46.77 43.6958,45.81 44,44.6633 44,43.33 44,41.6233 43.5025,40.2508 42.5075,39.2125 41.5175,38.1642 40.2233,37.64 38.625,37.64 L 38,37.6653 Z m 14,-9.5 h 3 v 2 C 55,27.9853 47.3888,30 38,30 v -5 c 7.732,0 14,-0.6715 14,-1.5 z M 38.5375,39.88 c 0.86,0 1.5325,0.3192 2.0175,0.9575 0.4833,0.6283 0.725,1.5025 0.725,2.6225 0,1.08 -0.2525,1.9292 -0.7575,2.5475 C 40.0242,46.6158 39.3417,46.92 38.475,46.92 L 38,46.8837 V 39.9251 Z M 52.48,49 V 46.92 H 48.32 V 37.8 H 45.76 V 49 Z"
           id="path435"
           style="fill:#000000;fill-opacity:1" /><path
           fill="#000000"
           fill-opacity="1"
           stroke-width="0.2"
           stroke-linejoin="round"
           d="M 38,57 C 28.6111,57 21,54.9853 21,52.5 v -24 c 0,2.4853 7.6112,4.5 17,4.5 v 4.6436 c -1.4391,0.1153 -2.6124,0.6524 -3.52,1.6113 -1.0267,1.085 -1.54,2.5117 -1.54,4.28 0,0.7734 0.1216,1.4975 0.365,2.1725 0.2433,0.675 0.5879,1.263 1.0337,1.7638 0.4459,0.5008 0.9829,0.8991 1.6113,1.195 0.6154,0.2897 1.2987,0.4472 2.05,0.4723 z M 55,23.5 H 52 C 52,22.6716 45.732,22 38,22 c -7.732,0 -14,0.6716 -14,1.5 0,0.8285 6.268,1.5 14,1.5 v 5 C 28.6111,30 21,27.9853 21,25.5 v -2 c 0,-2.4852 7.6112,-4.5 17,-4.5 9.384,0 16.9921,2.0127 17,4.5 z M 24.14,48.5324 c 0.4083,0.2017 0.8912,0.3534 1.4487,0.455 0.5575,0.1017 1.1454,0.1525 1.7638,0.1525 0.6016,0 1.1733,-0.057 1.715,-0.1712 0.5416,-0.1142 1.0166,-0.3021 1.425,-0.5638 0.4083,-0.2616 0.7316,-0.6033 0.97,-1.025 0.2383,-0.4216 0.3575,-0.9433 0.3575,-1.565 0,-0.45 -0.0667,-0.8445 -0.2,-1.1837 -0.1334,-0.3392 -0.3259,-0.6408 -0.5775,-0.905 -0.2517,-0.2642 -0.5534,-0.5013 -0.905,-0.7113 l -1.19,-0.595 -0.87,-0.3912 -0.655,-0.3888 -0.4163,-0.4187 C 26.9087,41.0737 26.86,40.9066 26.86,40.7199 c 0,-0.1783 0.0437,-0.3395 0.1312,-0.4837 l 0.37,-0.3713 0.5863,-0.24 0.77,-0.085 0.6525,0.0475 0.69,0.1475 0.675,0.2525 0.605,0.3525 v -2.2975 c -0.38,-0.1433 -0.7955,-0.2495 -1.2463,-0.3187 l -1.5512,-0.1038 c -0.595,0 -1.1584,0.0634 -1.69,0.19 -0.5317,0.1267 -0.9996,0.325 -1.4038,0.595 -0.4042,0.27 -0.7233,0.6134 -0.9575,1.03 -0.2342,0.4167 -0.3512,0.915 -0.3512,1.495 0,0.74 0.2116,1.3717 0.635,1.895 0.4233,0.5234 1.0666,0.9659 1.93,1.3275 l 0.9462,0.4125 0.7588,0.42 0.505,0.4738 c 0.1233,0.1708 0.185,0.3646 0.185,0.5812 l -0.1163,0.4675 c -0.0775,0.1434 -0.1954,0.268 -0.3537,0.3738 l -0.5913,0.2487 -0.8287,0.09 c -0.5384,0 -1.0717,-0.0933 -1.6,-0.28 -0.5284,-0.1866 -1.0184,-0.4666 -1.47,-0.84 z m 12.2925,-7.7 C 36.8449,40.3182 37.3674,40.0079 38,39.9016 v 6.9651 c -0.6317,-0.0958 -1.1567,-0.3989 -1.575,-0.9093 -0.51,-0.6333 -0.765,-1.4875 -0.765,-2.5625 0,-1.065 0.2575,-1.9191 0.7725,-2.5625 z"
           id="path437" /></g><rect
         style="fill:#2a2f9d;stroke-width:0.499999"
         id="rect32917"
         width="29.356335"
         height="31.614517"
         x="5.5934839"
         y="48.957661" /><text
         xml:space="preserve"
         style="font-size:3.52778px;line-height:1.25;font-family:Arial;-inkscape-font-specification:Arial;fill:#ffffff;fill-opacity:1;stroke-width:0.264583"
         x="7.1105165"
         y="54.166286"
         id="text32921"><tspan
           sodipodi:role="line"
           id="tspan32919"
           style="font-size:3.52778px;fill:#ffffff;fill-opacity:1;stroke-width:0.264583"
           x="7.1105165"
           y="54.166286">Applet Container</tspan></text><rect
         style="fill:#526abc;fill-opacity:1;stroke-width:0.499999"
         id="rect32923"
         width="14.725806"
         height="11.17742"
         x="12.908749"
         y="59.176208" /><text
         xml:space="preserve"
         style="font-size:3.52778px;line-height:1.25;font-family:Arial;-inkscape-font-specification:Arial;stroke-width:0.264583"
         x="15.285732"
         y="65.67701"
         id="text32921-8"><tspan
           sodipodi:role="line"
           id="tspan32919-1"
           style="font-size:3.52778px;stroke-width:0.264583"
           x="15.285732"
           y="65.67701">Applet</tspan></text><g
         id="g33503"
         transform="translate(60.114196,-80.690515)"><rect
           style="fill:#2a2f9d;stroke-width:0.499999"
           id="rect32917-4"
           width="29.356335"
           height="31.614517"
           x="-54.572678"
           y="165.59985" /><text
           xml:space="preserve"
           style="font-size:3.52778px;line-height:1.25;font-family:Arial;-inkscape-font-specification:Arial;fill:#ffffff;fill-opacity:1;stroke-width:0.264583"
           x="-40.006477"
           y="170.17165"
           id="text32921-7"><tspan
             sodipodi:role="line"
             id="tspan32919-2"
             style="font-size:3.52778px;text-align:center;text-anchor:middle;fill:#ffffff;fill-opacity:1;stroke-width:0.264583"
             x="-40.006477"
             y="170.17165">Application</tspan><tspan
             sodipodi:role="line"
             style="font-size:3.52778px;text-align:center;text-anchor:middle;fill:#ffffff;fill-opacity:1;stroke-width:0.264583"
             x="-40.006477"
             y="174.58138"
             id="tspan33426">Client Container</tspan></text><g
           id="g33466"
           transform="translate(-0.14750671,0.79265678)"><rect
             style="fill:#526abc;fill-opacity:1;stroke-width:0.599737"
             id="rect32923-8"
             width="21.18671"
             height="11.17742"
             x="-50.340359"
             y="178.39671" /><text
             xml:space="preserve"
             style="font-size:3.52778px;line-height:1.25;font-family:Arial;-inkscape-font-specification:Arial;stroke-width:0.264583"
             x="-39.622982"
             y="183.02165"
             id="text32921-8-5"><tspan
               sodipodi:role="line"
               id="tspan32919-1-7"
               style="font-size:3.52778px;text-align:center;text-anchor:middle;stroke-width:0.264583"
               x="-39.622982"
               y="183.02165">Application</tspan><tspan
               sodipodi:role="line"
               style="font-size:3.52778px;text-align:center;text-anchor:middle;stroke-width:0.264583"
               x="-39.622982"
               y="187.43138"
               id="tspan33460">Client</tspan></text></g></g><rect
         style="fill:#2a2f9d;fill-opacity:1;stroke-width:0.499999"
         id="rect33375"
         width="50.18177"
         height="30.861788"
         x="51.268757"
         y="68.736794" /><text
         xml:space="preserve"
         style="font-size:3.52778px;line-height:1.25;font-family:Arial;-inkscape-font-specification:Arial;stroke-width:0.264583"
         x="64.048386"
         y="74.161285"
         id="text33534"><tspan
           sodipodi:role="line"
           id="tspan33532"
           style="font-size:3.52778px;fill:#ffffff;fill-opacity:1;stroke-width:0.264583"
           x="64.048386"
           y="74.161285">Web Container</tspan></text><g
         id="g33572"><rect
           style="fill:#526abc;fill-opacity:1;stroke-width:0.499999"
           id="rect32923-1"
           width="14.725806"
           height="11.17742"
           x="56.153229"
           y="82.233864" /><text
           xml:space="preserve"
           style="font-size:3.52778px;line-height:1.25;font-family:Arial;-inkscape-font-specification:Arial;stroke-width:0.264583"
           x="60.307152"
           y="89.085205"
           id="text33567"><tspan
             sodipodi:role="line"
             id="tspan33565"
             style="font-size:3.52778px;stroke-width:0.264583"
             x="60.307152"
             y="89.085205">JSP</tspan></text><rect
           style="fill:#526abc;fill-opacity:1;stroke-width:0.499999"
           id="rect32923-1-1"
           width="14.725806"
           height="11.17742"
           x="79.910332"
           y="82.191826" /><text
           xml:space="preserve"
           style="font-size:3.52778px;line-height:1.25;font-family:Arial;-inkscape-font-specification:Arial;stroke-width:0.264583"
           x="82.201355"
           y="88.954453"
           id="text33567-6"><tspan
             sodipodi:role="line"
             id="tspan33565-8"
             style="font-size:3.52778px;stroke-width:0.264583"
             x="82.201355"
             y="88.954453">Servlet</tspan></text><rect
           style="fill:#2a2f9d;fill-opacity:1;stroke-width:0.499999"
           id="rect33375-9"
           width="50.18177"
           height="30.861788"
           x="114.71557"
           y="68.8433" /><text
           xml:space="preserve"
           style="font-size:3.52778px;line-height:1.25;font-family:Arial;-inkscape-font-specification:Arial;stroke-width:0.264583"
           x="128.26967"
           y="74.267792"
           id="text33534-9"><tspan
             sodipodi:role="line"
             id="tspan33532-2"
             style="font-size:3.52778px;fill:#ffffff;fill-opacity:1;stroke-width:0.264583"
             x="128.26967"
             y="74.267792">EJB Container</tspan></text><rect
           style="fill:#526abc;fill-opacity:1;stroke-width:0.499999"
           id="rect32923-1-3"
           width="14.725806"
           height="11.17742"
           x="131.84196"
           y="82.34037" /><text
           xml:space="preserve"
           style="font-size:3.52778px;line-height:1.25;font-family:Arial;-inkscape-font-specification:Arial;stroke-width:0.264583"
           x="135.9959"
           y="89.191711"
           id="text33567-9"><tspan
             sodipodi:role="line"
             id="tspan33565-3"
             style="font-size:3.52778px;stroke-width:0.264583"
             x="135.9959"
             y="89.191711">EJB</tspan></text></g><path
         style="fill:#ffffff;fill-opacity:1;stroke:#000000;stroke-width:1;stroke-dasharray:none;stroke-opacity:1"
         d="M 36.016128,65.112902 49.67742,80.193548"
         id="path33727" /><path
         style="fill:#ffffff;fill-opacity:1;stroke:#000000;stroke-width:1;stroke-dasharray:none;stroke-opacity:1"
         d="M 36.074768,102.00751 49.73606,86.926862"
         id="path33727-1" /><path
         style="fill:none;fill-opacity:1;stroke:#000000;stroke-width:1;stroke-dasharray:none;stroke-opacity:1"
         d="M 35.129033,106.27419 H 106.98387 V 87.822579 h 6.74194"
         id="path33751" /><path
         style="fill:none;fill-opacity:1;stroke:#000000;stroke-width:1;stroke-dasharray:none;stroke-opacity:1"
         d="M 34.951611,111.41935 H 185.40322 V 98.17071"
         id="path33807"
         sodipodi:nodetypes="ccc" /><path
         style="fill:none;fill-opacity:1;stroke:#000000;stroke-width:1;stroke-dasharray:none;stroke-opacity:1"
         d="m 139.62903,99.709675 v 6.387095 h 39.91936 l -0.0417,-8.3163"
         id="path33809"
         sodipodi:nodetypes="cccc" /><path
         style="fill:none;fill-opacity:1;stroke:#000000;stroke-width:1;stroke-dasharray:none;stroke-opacity:1"
         d="M 89.596774,99.709675 V 119.93548 H 190.19355 V 99.354837"
         id="path33811" /><path
         sodipodi:type="star"
         style="fill:#000000;fill-opacity:1;stroke:#000000;stroke-width:1;stroke-dasharray:none;stroke-opacity:1"
         id="path33867"
         inkscape:flatsided="false"
         sodipodi:sides="3"
         sodipodi:cx="179.55664"
         sodipodi:cy="98.48172"
         sodipodi:r1="0.88041842"
         sodipodi:r2="0.41230753"
         sodipodi:arg1="-1.5707963"
         sodipodi:arg2="-0.52359878"
         inkscape:rounded="0"
         inkscape:randomized="0"
         d="m 179.55664,97.601302 0.35707,0.674264 0.4054,0.646363 -0.76247,-0.0279 -0.76246,0.0279 0.40539,-0.646363 z"
         inkscape:transform-center-x="2.262131e-06"
         inkscape:transform-center-y="-0.22010584" /><path
         sodipodi:type="star"
         style="fill:#000000;fill-opacity:1;stroke:#000000;stroke-width:1;stroke-dasharray:none;stroke-opacity:1"
         id="path33869"
         inkscape:flatsided="false"
         sodipodi:sides="3"
         sodipodi:cx="190.09482"
         sodipodi:cy="99.70491"
         sodipodi:r1="0.87874091"
         sodipodi:r2="0.41152194"
         sodipodi:arg1="-1.5707963"
         sodipodi:arg2="-0.52359878"
         inkscape:rounded="0"
         inkscape:randomized="0"
         d="m 190.09482,98.826169 0.35639,0.67298 0.40462,0.645131 -0.76101,-0.0279 -0.76101,0.0279 0.40462,-0.645131 z"
         inkscape:transform-center-x="2.3948954e-06"
         inkscape:transform-center-y="-0.21968648"
         transform="translate(0.03136361,-0.81545379)" /><path
         sodipodi:type="star"
         style="fill:#000000;fill-opacity:1;stroke:#000000;stroke-width:1;stroke-dasharray:none;stroke-opacity:1"
         id="path33871"
         inkscape:flatsided="false"
         sodipodi:sides="3"
         sodipodi:cx="185.17075"
         sodipodi:cy="98.607185"
         sodipodi:r1="0.62727213"
         sodipodi:r2="0.29375696"
         sodipodi:arg1="-1.5707963"
         sodipodi:arg2="-0.52359878"
         inkscape:rounded="0"
         inkscape:randomized="0"
         d="m 185.17075,97.979913 0.2544,0.480394 0.28883,0.460514 -0.54323,-0.01988 -0.54324,0.01988 0.28883,-0.460514 z"
         inkscape:transform-center-x="2.3328597e-06"
         inkscape:transform-center-y="-0.15681928"
         transform="translate(0.28227247,0.09409082)" /><path
         sodipodi:type="star"
         style="fill:#000000;fill-opacity:1;stroke:#000000;stroke-width:1;stroke-dasharray:none;stroke-opacity:1"
         id="path33873"
         inkscape:flatsided="false"
         sodipodi:sides="3"
         sodipodi:cx="48.989918"
         sodipodi:cy="87.911293"
         sodipodi:r1="0.8951"
         sodipodi:r2="0.41918302"
         sodipodi:arg1="-0.78539816"
         sodipodi:arg2="0.26179939"
         inkscape:rounded="0"
         inkscape:randomized="0"
         d="m 49.622849,87.278362 -0.228032,0.741424 -0.17323,0.756107 -0.528076,-0.568193 -0.568193,-0.528076 0.756107,-0.173231 z"
         inkscape:transform-center-x="0.11583508"
         inkscape:transform-center-y="0.11583335"
         transform="translate(0.24395161,-0.5766129)" /><path
         sodipodi:type="star"
         style="fill:#000000;fill-opacity:1;stroke:#000000;stroke-width:1;stroke-dasharray:none;stroke-opacity:1"
         id="path33875"
         inkscape:flatsided="false"
         sodipodi:sides="3"
         sodipodi:cx="48.834675"
         sodipodi:cy="79.417343"
         sodipodi:r1="0.70585537"
         sodipodi:r2="0.33055815"
         sodipodi:arg1="0.78539816"
         sodipodi:arg2="1.8325957"
         inkscape:rounded="0"
         inkscape:randomized="0"
         d="m 49.33379,79.916458 -0.58467,-0.17982 -0.596249,-0.136606 0.448064,-0.416429 0.416429,-0.448064 0.136605,0.596249 z"
         inkscape:transform-center-x="0.11318153"
         inkscape:transform-center-y="-0.11318149"
         transform="matrix(1.2390803,0,0,1.2390803,-11.110432,-18.4665)" /><path
         sodipodi:type="star"
         style="fill:#000000;fill-opacity:1;stroke:#000000;stroke-width:1;stroke-dasharray:none;stroke-opacity:1"
         id="path33877"
         inkscape:flatsided="false"
         sodipodi:sides="3"
         sodipodi:cx="112.8933"
         sodipodi:cy="87.818092"
         sodipodi:r1="0.79977202"
         sodipodi:r2="0.37454012"
         sodipodi:arg1="0"
         sodipodi:arg2="1.0471976"
         inkscape:rounded="0"
         inkscape:randomized="0"
         d="m 113.69307,87.818092 -0.6125,0.324362 -0.58715,0.368261 0.0253,-0.692623 -0.0253,-0.692623 0.58715,0.368262 z"
         inkscape:transform-center-x="-0.19994157"
         inkscape:transform-center-y="-1.1063698e-06" /><path
         sodipodi:type="star"
         style="fill:#000000;fill-opacity:1;stroke:#000000;stroke-width:1;stroke-dasharray:none;stroke-opacity:1"
         id="path33877-8"
         inkscape:flatsided="false"
         sodipodi:sides="3"
         sodipodi:cx="112.8933"
         sodipodi:cy="87.818092"
         sodipodi:r1="0.79977202"
         sodipodi:r2="0.37454012"
         sodipodi:arg1="0"
         sodipodi:arg2="1.0471976"
         inkscape:rounded="0"
         inkscape:randomized="0"
         d="m 113.69307,87.818092 -0.6125,0.324362 -0.58715,0.368261 0.0253,-0.692623 -0.0253,-0.692623 0.58715,0.368262 z"
         inkscape:transform-center-x="-0.19994157"
         inkscape:transform-center-y="-1.1063698e-06"
         transform="translate(0.04062125,-5.3327351)" /></g><path
       style="fill:#ea2d2e;fill-opacity:1;stroke:#000000;stroke-width:1;stroke-dasharray:none;stroke-opacity:1"
       d="m 101.44252,82.552702 h 12.25029"
       id="path57890-0"
       sodipodi:nodetypes="cc" /></g></svg>
