<?xml version="1.0" encoding="UTF-8" standalone="no"?>
<!-- Created with Inkscape (http://www.inkscape.org/) -->

<svg
   width="250.40704mm"
   height="160.07985mm"
   viewBox="0 0 250.40704 160.07985"
   version="1.1"
   id="svg5"
   xml:space="preserve"
   inkscape:version="1.2.2 (732a01da63, 2022-12-09)"
   sodipodi:docname="container.svg"
   xmlns:inkscape="http://www.inkscape.org/namespaces/inkscape"
   xmlns:sodipodi="http://sodipodi.sourceforge.net/DTD/sodipodi-0.dtd"
   xmlns="http://www.w3.org/2000/svg"
   xmlns:svg="http://www.w3.org/2000/svg"><sodipodi:namedview
     id="namedview7"
     pagecolor="#505050"
     bordercolor="#eeeeee"
     borderopacity="1"
     inkscape:showpageshadow="0"
     inkscape:pageopacity="0"
     inkscape:pagecheckerboard="0"
     inkscape:deskcolor="#505050"
     inkscape:document-units="mm"
     showgrid="false"
     inkscape:zoom="0.52724989"
     inkscape:cx="706.49612"
     inkscape:cy="428.63926"
     inkscape:window-width="1920"
     inkscape:window-height="1017"
     inkscape:window-x="-8"
     inkscape:window-y="-8"
     inkscape:window-maximized="1"
     inkscape:current-layer="layer1" /><defs
     id="defs2" /><g
     inkscape:label="Layer 1"
     inkscape:groupmode="layer"
     id="layer1"
     transform="translate(-0.43909,-0.18818)"><g
       id="g1811"
       transform="translate(40.145417,-43.156324)"><path
         style="fill:#2a2f9d;stroke:none;stroke-width:0.499999"
         d="m -38.629201,55.115696 5.708177,-0.376362 0.125455,11.165443 -5.833632,0.564544 z"
         id="path356" /><path
         style="fill:#2a2f9d;stroke:none;stroke-width:0.499999"
         d="m 52.063588,44.222685 -0.06273,12.608171 6.209993,-0.627271 7.025449,1.505452 0.06273,-12.482716 -6.774537,-1.881817 z"
         id="path912" /><path
         style="fill:#2a2f9d;stroke:none;stroke-width:0.499999"
         d="m -39.706327,185.17073 0.188182,11.60454 5.269087,0.12545 -0.06273,-11.5418 z"
         id="path914" /><path
         style="fill:#2a2f9d;stroke:none;stroke-width:0.499999"
         d="m 52.189041,190.87891 v 12.54544 h 6.08454 l 7.339084,-1.19181 v -12.10636 l -6.084538,0.69001 z"
         id="path916" /><path
         style="fill:#2a2f9d;stroke:none;stroke-width:0.499999"
         d="m 205.40026,173.12711 5.20636,-0.0314 0.0941,7.96635 -3.92045,-0.0314 -0.0314,-4.67318 -1.34864,0.0941 z"
         id="path918" /><path
         style="fill:#2a2f9d;stroke:none;stroke-width:0.499999"
         d="m 204.64754,85.058101 -0.0314,3.136363 2.47773,-0.09409 2.19545,0.407726 0.0314,-7.684082 -2.22681,-0.627274 h -2.22682 l 0.0941,0.345001 h 0.69 l 0.0627,4.735904 -0.59591,0.03136 z"
         id="path920" /><path
         style="fill:#2a2f9d;stroke:none;stroke-width:0.499999"
         d="m -36.632692,66.741756 3.512722,-0.376364 -1.129088,118.679888 h -3.512725 z"
         id="path974" /><path
         style="fill:#2a2f9d;stroke:none;stroke-width:0.499999"
         d="m -32.367243,55.011766 v 6.084541 l 83.95192,-9.245502 0.08871,-6.475806 z"
         id="path976" /><path
         style="fill:#2a2f9d;stroke:none;stroke-width:0.499999"
         d="m 65.733871,46.48387 v 6.653226 L 205.3689,84.869921 v -4.077269 z"
         id="path978" /><path
         style="fill:#2a2f9d;stroke:none;stroke-width:0.499999"
         d="m -33.887097,190.90322 v 5.85484 l 85.427419,5.85484 v -6.65323 z"
         id="path980" /><path
         style="fill:#2a2f9d;stroke:none;stroke-width:0.499999"
         d="m 66.177209,194.768 -0.125452,6.71181 140.375663,-20.42336 v -4.16935 z"
         id="path982" /><path
         style="fill:#2a2f9d;stroke:none;stroke-width:0.499999"
         d="m 205.18072,88.508098 3.32454,0.376365 0.37636,83.929017 h -3.44999 z"
         id="path984" /><path
         style="fill:#2a2f9d;stroke:none;stroke-width:0.499999"
         d="m 201.37096,84.762096 2.39517,0.487902 0.0444,3.548388 0.53226,0.08871 0.26613,87.334674 -3.19355,0.35484 z"
         id="path986" /><path
         style="fill:#2a2f9d;stroke:none;stroke-width:0.499999"
         d="m 197.20161,83.830643 3.37097,0.709679 v 92.213708 l -3.37097,0.39919 z"
         id="path988" /><path
         style="fill:#2a2f9d;stroke:none;stroke-width:0.499999"
         d="m 192.74395,82.832661 3.54839,0.864918 v 93.544351 l -3.50404,0.3992 z"
         id="path990" /><path
         style="fill:#2a2f9d;stroke:none;stroke-width:0.499999"
         d="m 188.40119,81.859013 3.3559,0.78409 v 95.188547 l -3.44999,0.43909 z"
         id="path992" /><path
         style="fill:#2a2f9d;stroke:none;stroke-width:0.499999"
         d="m 183.49597,80.77016 4.08064,0.909275 v 96.591305 l -4.09951,0.56455 z"
         id="path994" /><path
         style="fill:#2a2f9d;stroke:none;stroke-width:0.499999"
         d="m 178.66129,79.616934 3.85887,0.842743 v 98.595153 l -3.77897,0.43909 z"
         id="path1722" /><path
         style="fill:#2a2f9d;stroke:none;stroke-width:0.499999"
         d="m 174.19347,78.597198 3.57546,0.846818 V 179.55665 l -3.60682,0.53318 z"
         id="path1724" /><path
         style="fill:#2a2f9d;stroke:none;stroke-width:0.499999"
         d="m 168.67348,77.248564 4.61045,1.160454 V 180.08983 l -4.67318,0.65864 z"
         id="path1726" /><path
         style="fill:#2a2f9d;stroke:none;stroke-width:0.499999"
         d="m 163.68667,76.26061 3.98317,0.878181 V 180.93665 l -4.0459,0.43909 z"
         id="path1728" /><path
         style="fill:#2a2f9d;stroke:none;stroke-width:0.499999"
         d="m 157.79031,74.927657 4.82999,1.066361 V 181.50119 l -4.86136,0.59591 z"
         id="path1730" /><path
         style="fill:#2a2f9d;stroke:none;stroke-width:0.499999"
         d="m 151.79986,73.390841 4.89272,1.129088 V 182.22256 l -5.01818,0.68999 z"
         id="path1732" /><path
         style="fill:#2a2f9d;stroke:none;stroke-width:0.499999"
         d="m 146.17137,72.209678 4.63508,1.064514 V 183.05242 l -4.70161,0.59879 z"
         id="path1734" /><path
         style="fill:#2a2f9d;stroke:none;stroke-width:0.499999"
         d="m 139.69556,70.657256 5.34476,1.264113 V 183.87298 l -5.34476,0.57662 z"
         id="path1736" /><path
         style="fill:#2a2f9d;stroke:none;stroke-width:0.499999"
         d="m 132.91897,69.156754 5.73954,1.442725 V 184.63755 l -5.73954,0.75273 z"
         id="path1738" /><path
         style="fill:#2a2f9d;stroke:none;stroke-width:0.499999"
         d="m 127.02261,67.933572 4.70454,1.035 0.0627,116.609888 -4.67318,0.43909 z"
         id="path1740" /><path
         style="fill:#2a2f9d;stroke:none;stroke-width:0.499999"
         d="m 120.29032,66.354837 5.61089,1.264113 v 118.64919 l -5.67742,0.70968 z"
         id="path1742" /><path
         style="fill:#2a2f9d;stroke:none;stroke-width:0.499999"
         d="m 113.14919,64.669354 5.85484,1.375 V 187.17742 l -5.87701,0.6875 z"
         id="path1744" /><path
         style="fill:#2a2f9d;stroke:none;stroke-width:0.499999"
         d="m 105.72672,63.009486 6.17863,1.474089 V 188.08755 l -6.24136,0.75273 z"
         id="path1746" /><path
         style="fill:#2a2f9d;stroke:none;stroke-width:0.499999"
         d="m 97.979909,61.159035 6.523631,1.599544 V 188.93437 l -6.523631,0.87818 z"
         id="path1748" /><path
         style="fill:#2a2f9d;stroke:none;stroke-width:0.499999"
         d="m 90.578097,59.559488 6.241357,1.411364 V 190.06346 l -6.178629,0.75273 z"
         id="path1750" /><path
         style="fill:#2a2f9d;stroke:none;stroke-width:0.499999"
         d="m 82.047195,57.583583 7.339084,1.693635 V 190.94164 l -7.339084,1.00363 z"
         id="path1752" /><path
         style="fill:#2a2f9d;stroke:none;stroke-width:0.499999"
         d="m 72.638115,55.325404 8.09181,1.944541 V 192.008 l -8.029085,1.12909 z"
         id="path1754" /><path
         style="fill:#2a2f9d;stroke:none;stroke-width:0.499999"
         d="m 65.98903,53.882676 5.519994,1.317273 0.125455,138.188051 -5.269087,0.62727 -0.06273,-4.64181 -2.88545,0.18818 0.188182,-131.601696 2.446361,0.439092 z"
         id="path1756" /><path
         style="fill:#2a2f9d;stroke:none;stroke-width:0.499999"
         d="M 62.789942,57.834492 58.4304,56.705401 52.659496,57.050402 V 190.2379 l 6.066309,0.0887 3.94758,-0.44355 z"
         id="path1758" /><path
         style="fill:#2a2f9d;stroke:none;stroke-width:0.499999"
         d="m 34.508064,54.379031 v 24.750001 h 3.08266 v 6.187501 h -2.971773 v 7.784271 h 2.949596 v 6.254033 h -3.060483 v 53.314513 h 5.566531 v -0.57661 h 4.723792 v 0.73186 h 2.350807 v 2.90524 h -2.32863 v 0.86492 h -4.967742 v -0.82057 h -5.278226 v 7.65121 h 3.016128 v 6.31444 h -3.043711 v 24.46362 l 16.701122,0.95658 0.04705,-4.89272 0.501817,-0.0314 V 57.616936 l -0.500626,-0.0998 v -4.73488 z"
         id="path1760" /><path
         style="fill:#2a2f9d;stroke:none;stroke-width:0.499999"
         d="m 17.830645,56.241936 13.883064,-1.508067 v 24.631737 h -1.400783 v 6.068859 h 1.348634 v 7.887946 h -1.379998 v 6.037496 h 1.379998 v 64.326763 h -1.348634 v 6.02181 h 1.379998 v 24.18134 l -13.941122,-0.79977 v -23.86771 h 2.69727 v -6.31976 h -2.60318 v -7.40182 h 5.331814 v 0.81546 h 4.751586 v -0.83114 h 2.242497 v -2.88545 h -2.273861 v -0.76841 h -4.673177 v 0.75273 h -5.410222 v -52.40859 h 2.759997 v -5.959086 h -2.759997 v -7.652718 h 2.759997 v -6.147268 h -2.822724 z"
         id="path1762" /><path
         style="fill:#2a2f9d;stroke:none;stroke-width:0.499999"
         d="m -0.13306452,192.01209 14.92540352,0.8871 v -23.6633 h -1.330646 v -6.07662 h 1.264113 v -62.8508 h -1.264113 v -5.87265 h 1.34193 V 86.626284 H 13.454987 V 80.60447 h 1.285908 V 56.705401 L -0.12545443,58.304945 V 81.859013 H 2.6031794 v 5.833631 l -2.75999743,0.09409 v 7.401812 H 2.6972702 v 5.959084 h -2.75999741 v 61.54592 H 2.8387095 v 5.85484 h -3.06048369 z"
         id="path1764" /><path
         style="fill:#2a2f9d;stroke:none;stroke-width:0.499999"
         d="m -15.923387,60.05645 12.7298387,-1.46371 v 23.419356 h -1.3750002 v 5.766128 h 1.2862904 v 7.629033 H -4.657258 v 5.766133 h 1.4193549 v 51.18548 h -5.1008065 v -0.75403 h -4.9233874 v 0.75403 h -2.129032 v 2.88306 h 2.262097 v 1.02016 h 4.7016127 v -1.02016 h 5.3669355 v 7.58468 h -1.5080647 v 5.8992 h 1.3750002 v 23.10886 l -12.8185487,-0.62096 v -23.02016 h 2.75 v -5.76613 h -2.838709 v -60.05645 h 2.838709 v -6.20968 h -2.705645 v -7.096776 h 2.66129 v -5.794137 h -2.688987 z"
         id="path1766" /><path
         style="fill:#2a2f9d;stroke:none;stroke-width:0.499999"
         d="m -31.928151,61.786306 13.078623,-1.474089 V 83.39583 h -1.662271 v 5.770903 h 1.693635 v 7.339084 h -1.724999 v 5.927723 h 1.693635 v 49.96222 h -5.331813 v -0.90954 h -4.704541 v 0.81546 h -2.509089 v 2.85408 h 2.477725 v 0.90955 h 4.735905 v -0.81546 h 5.269086 v 7.30772 h -1.536817 v 5.61409 h 1.599544 v 22.8327 l -14.678167,-0.87818 1.129088,-123.980334 0.533183,-0.219544 z"
         id="path1768" /></g></g></svg>
