<?xml version="1.0" encoding="UTF-8" standalone="no"?>
<!-- Generator: Adobe Illustrator 24.0.3, SVG Export Plug-In . SVG Version: 6.00 Build 0)  -->

<svg
   version="1.1"
   id="Layer_1"
   x="0px"
   y="0px"
   viewBox="0 0 500 380"
   style="enable-background:new 0 0 500 380;"
   xml:space="preserve"
   sodipodi:docname="javaee.svg"
   inkscape:version="1.2.2 (732a01da63, 2022-12-09)"
   xmlns:inkscape="http://www.inkscape.org/namespaces/inkscape"
   xmlns:sodipodi="http://sodipodi.sourceforge.net/DTD/sodipodi-0.dtd"
   xmlns="http://www.w3.org/2000/svg"
   xmlns:svg="http://www.w3.org/2000/svg"><defs
   id="defs82">
	
	
	
	
</defs><sodipodi:namedview
   id="namedview80"
   pagecolor="#505050"
   bordercolor="#eeeeee"
   borderopacity="1"
   inkscape:showpageshadow="0"
   inkscape:pageopacity="0"
   inkscape:pagecheckerboard="0"
   inkscape:deskcolor="#505050"
   showgrid="false"
   inkscape:zoom="2.2026316"
   inkscape:cx="209.97611"
   inkscape:cy="151.6368"
   inkscape:window-width="1920"
   inkscape:window-height="1017"
   inkscape:window-x="-8"
   inkscape:window-y="-8"
   inkscape:window-maximized="1"
   inkscape:current-layer="Layer_1" />
<style
   type="text/css"
   id="style43">
	.st0{fill:#58595B;}
	.st1{fill:#FDB940;}
	.st2{fill:#FEB322;}
	.st3{fill:#F98200;}
	.st4{fill:#1B208B;}
</style>
<path
   id="path65-5"
   style="fill:#4efd40;fill-opacity:1;stroke:#212121;stroke-opacity:1;stroke-width:4;stroke-dasharray:none"
   class="st1"
   d="m 369.57034,20.339251 -62.50001,68.40039 c -8.4e-4,0.03663 -0.003,0.07662 -0.004,0.113281 l -108.59561,118.886718 62.61524,15.67969 c -0.005,0.007 -0.0102,0.0144 -0.0156,0.0215 l 54.4004,13.59961 C 406.17064,151.64052 369.57034,20.339251 369.57034,20.339251 Z M 261.07033,223.44081 198.37112,207.73964 307.07033,88.739641 c 0.5,-23.999976 -2.59961,-39.599609 -2.59961,-39.599609 l -137.90039,150.999998 94.30079,23.59961 c 0.1,-0.1 0.0992,-0.19883 0.19921,-0.29883 z" /><g
   id="g63">
	<path
   class="st0"
   d="M74.9,355.3c1.3,1.8,3.6,3.3,6.5,3.3c3.7,0,8.4-2.3,8.4-8.9v-32.9h7.4v33.6c0,9.7-7.7,15.6-15.6,15.6   c-5.6,0-9.9-2.6-12.7-6.4L74.9,355.3z"
   id="path45" />
	<path
   class="st0"
   d="M132,354.7h-18.5l-3.8,10.9h-7.8l17.7-48.8h6.2l17.7,48.8h-7.8L132,354.7z M129.9,348.1l-7.1-21.3h-0.1   l-7.1,21.3H129.9z"
   id="path47" />
	<path
   class="st0"
   d="M148.8,316.8h7.4v25.1h0.1l20.1-25.1h8.8L169.5,336l17.3,29.5H178l-13.3-23.8l-8.6,9v14.9h-7.4V316.8z"
   id="path49" />
	<path
   class="st0"
   d="M217,354.7h-18.5l-3.8,10.9h-7.8l17.7-48.8h6.2l17.7,48.8h-7.8L217,354.7z M214.8,348.1l-7.1-21.3h-0.1   l-7.1,21.3H214.8z"
   id="path51" />
	<path
   class="st0"
   d="M233.8,316.8h19c4.1,0,7.3,1,9.9,3.2c2.7,2.3,4.9,6,4.9,10.4c0,6.3-3.6,11.4-9.5,13.5l11.3,21.7h-8.8   l-10.1-20.8h-9.5v20.8h-7.4V316.8z M241.2,338.2h11.2c5.6,0,8.3-3.6,8.3-7.7c0-2.5-1-4.5-2.5-5.6c-1.4-1-2.9-1.5-5.4-1.5h-11.6   V338.2z"
   id="path53" />
	<path
   class="st0"
   d="M282.6,323.4h-13.4v-6.6h34.1v6.6H290v42.2h-7.4V323.4z"
   id="path55" />
	<path
   class="st0"
   d="M328.5,354.7H310l-3.8,10.9h-7.8l17.7-48.8h6.2l17.7,48.8h-7.8L328.5,354.7z M326.4,348.1l-7.1-21.3h-0.1   l-7.1,21.3H326.4z"
   id="path57" />
	<path
   class="st0"
   d="M361.8,316.8h31.2v7h-23.8v13.9h20.3v6.6h-20.3v14.3h23.8v7h-31.2V316.8z"
   id="path59" />
	<path
   class="st0"
   d="M399.9,316.8H431v7h-23.8v13.9h20.3v6.6h-20.3v14.3H431v7h-31.2V316.8z"
   id="path61" />
</g>
<path
   class="st1"
   d="M 369.5,20.3 307,88.7 c -0.8,34.7 -9.2,86.9 -46,134.7 L 315.4,237 C 406.1,151.6 369.5,20.3 369.5,20.3 Z"
   id="path65" /><path
   class="st2"
   d="m 307,88.7 c 0.5,-24 -2.6,-39.6 -2.6,-39.6 l -137.9,151 94.3,23.6 c 0.1,-0.1 0.1,-0.2 0.2,-0.3 l -62.7,-15.7 z"
   id="path67" /><path
   class="st3"
   d="m 197.8565,208.05599 63.327,15.857 c 37.168,-48.177 45.652,-101 46.46,-136.047004 z"
   id="path69"
   style="stroke-width:1.01" /><path
   class="st4"
   d="m 285.6,239.1 c 5.5,0 10.8,0.3 16.1,0.7 L 123.8,196 c 0,0 33.1,11 73.1,70.8 21.1,-17 53,-27.7 88.7,-27.7 z"
   id="path71" />
<g
   id="g77">
	<path
   class="st0"
   d="M335.8,325.4c-0.7-0.4-1.3-1-1.7-1.7c-0.4-0.7-0.6-1.5-0.6-2.3c0-0.8,0.2-1.6,0.6-2.3c0.4-0.7,1-1.3,1.7-1.7   c0.7-0.4,1.5-0.6,2.3-0.6c0.8,0,1.6,0.2,2.3,0.6c0.7,0.4,1.3,1,1.7,1.7c0.4,0.7,0.6,1.5,0.6,2.3c0,0.8-0.2,1.6-0.6,2.3   s-1,1.2-1.7,1.7c-0.7,0.4-1.5,0.6-2.3,0.6S336.5,325.8,335.8,325.4z M340.8,324.1c0.7-0.7,1-1.6,1-2.7c0-0.7-0.1-1.4-0.5-2   s-0.7-1-1.3-1.3s-1.2-0.5-1.9-0.5c-1.1,0-2,0.3-2.7,1c-0.7,0.7-1,1.6-1,2.7c0,1.1,0.3,2,1,2.7c0.7,0.7,1.6,1,2.7,1   C339.2,325.1,340.1,324.8,340.8,324.1z M339.8,323.7C339.8,323.7,339.8,323.7,339.8,323.7l-0.7,0c0,0-0.1,0-0.1-0.1l-0.7-2   c0,0,0,0,0-0.1c0,0,0,0-0.1,0h-0.9c0,0-0.1,0-0.1,0.1v1.9c0,0.1,0,0.1-0.1,0.1h-0.6c-0.1,0-0.1,0-0.1-0.1v-4.4c0-0.1,0-0.1,0.1-0.1   h2c0.5,0,0.9,0.1,1.1,0.3c0.3,0.2,0.4,0.5,0.4,0.9c0,0.6-0.3,1-0.9,1.2c0,0,0,0,0,0.1l0.8,2C339.8,323.6,339.8,323.6,339.8,323.7z    M339.1,320.4c0-0.4-0.3-0.6-0.9-0.6h-1c0,0,0,0,0,0s0,0,0,0c0,0,0,0,0,0.1v1c0,0.1,0,0.1,0.1,0.1h1.1   C338.8,321,339.1,320.8,339.1,320.4z"
   id="path75" />
</g>
</svg>
