<?xml version="1.0" encoding="UTF-8" standalone="no"?>
<!-- Created with Inkscape (http://www.inkscape.org/) -->

<svg
   width="129.64589mm"
   height="123.41304mm"
   viewBox="0 0 129.64589 123.41304"
   version="1.1"
   id="svg24303"
   xml:space="preserve"
   inkscape:version="1.2.2 (732a01da63, 2022-12-09)"
   sodipodi:docname="middleTiers.svg"
   xmlns:inkscape="http://www.inkscape.org/namespaces/inkscape"
   xmlns:sodipodi="http://sodipodi.sourceforge.net/DTD/sodipodi-0.dtd"
   xmlns="http://www.w3.org/2000/svg"
   xmlns:svg="http://www.w3.org/2000/svg"><sodipodi:namedview
     id="namedview24305"
     pagecolor="#505050"
     bordercolor="#eeeeee"
     borderopacity="1"
     inkscape:showpageshadow="0"
     inkscape:pageopacity="0"
     inkscape:pagecheckerboard="0"
     inkscape:deskcolor="#505050"
     inkscape:document-units="mm"
     showgrid="false"
     inkscape:zoom="1.0544998"
     inkscape:cx="174.01616"
     inkscape:cy="293.02994"
     inkscape:window-width="1920"
     inkscape:window-height="1017"
     inkscape:window-x="-8"
     inkscape:window-y="-8"
     inkscape:window-maximized="1"
     inkscape:current-layer="layer1" /><defs
     id="defs24300" /><g
     inkscape:label="Layer 1"
     inkscape:groupmode="layer"
     id="layer1"
     transform="translate(-62.918992,-48.648318)"><g
       id="g24846"
       transform="matrix(0.26458333,0,0,0.26458333,62.918907,45.531791)"><g
         id="g24791">
	
	<path
   d="m 355.633,11.779 c -34.17,0 -65.872,12.546 -91.697,36.293 L 244.885,65.688 226.073,47.609 C 202.416,24.804 169.921,12.243 134.585,12.243 c -37.594,0 -71.659,14.206 -95.959,40.032 -51.441,54.761 -51.501,141.703 -0.179,197.9 L 245.349,478.222 451.533,250.445 C 503.004,194.084 502.84,106.843 450.935,51.573 425.767,25.911 391.926,11.779 355.633,11.779 Z m -30.132,230.544 -80.347,88.766 -80.646,-88.901 c -21.623,-23.672 -21.563,-60.369 0.165,-83.532 10.527,-11.171 25.152,-17.302 41.228,-17.302 15.044,0 28.981,5.413 39.224,15.238 22.685,-20.816 58.993,-19.694 79.928,1.66 22.056,23.493 22.161,60.309 0.448,84.071 z"
   id="path24789"
   style="fill:#1b208b;fill-opacity:1" />
</g><g
         id="g24793">
</g><g
         id="g24795">
</g><g
         id="g24797">
</g><g
         id="g24799">
</g><g
         id="g24801">
</g><g
         id="g24803">
</g><g
         id="g24805">
</g><g
         id="g24807">
</g><g
         id="g24809">
</g><g
         id="g24811">
</g><g
         id="g24813">
</g><g
         id="g24815">
</g><g
         id="g24817">
</g><g
         id="g24819">
</g><g
         id="g24821">
</g></g><text
       xml:space="preserve"
       style="font-size:19.7556px;line-height:1.25;font-family:Arial;-inkscape-font-specification:Arial;stroke-width:0.264583"
       x="76.276291"
       y="80.039925"
       id="text24908"><tspan
         sodipodi:role="line"
         id="tspan24906"
         style="font-size:19.7556px;fill:#ffffff;fill-opacity:1;stroke-width:0.264583"
         x="76.276291"
         y="80.039925">MiddleTiers</tspan></text></g></svg>
