<?xml version="1.0" encoding="UTF-8" standalone="no"?>
<!-- Created with Inkscape (http://www.inkscape.org/) -->

<svg
   width="135.46666mm"
   height="186.20491mm"
   viewBox="0 0 135.46666 186.20491"
   version="1.1"
   id="svg14894"
   xml:space="preserve"
   inkscape:version="1.2.2 (732a01da63, 2022-12-09)"
   sodipodi:docname="presentationSuit.svg"
   xmlns:inkscape="http://www.inkscape.org/namespaces/inkscape"
   xmlns:sodipodi="http://sodipodi.sourceforge.net/DTD/sodipodi-0.dtd"
   xmlns="http://www.w3.org/2000/svg"
   xmlns:svg="http://www.w3.org/2000/svg"><sodipodi:namedview
     id="namedview14896"
     pagecolor="#505050"
     bordercolor="#eeeeee"
     borderopacity="1"
     inkscape:showpageshadow="0"
     inkscape:pageopacity="0"
     inkscape:pagecheckerboard="0"
     inkscape:deskcolor="#505050"
     inkscape:document-units="mm"
     showgrid="false"
     inkscape:zoom="0.74564394"
     inkscape:cx="390.93726"
     inkscape:cy="332.59843"
     inkscape:window-width="1920"
     inkscape:window-height="1017"
     inkscape:window-x="-8"
     inkscape:window-y="-8"
     inkscape:window-maximized="1"
     inkscape:current-layer="layer1" /><defs
     id="defs14891" /><g
     inkscape:label="Layer 1"
     inkscape:groupmode="layer"
     id="layer1"
     transform="translate(-38.155582,-1.410241)"><g
       id="g15039"
       transform="matrix(0.26458333,0,0,0.26458333,38.155582,78.012043)">
	<g
   id="g15033">
		<polygon
   style="fill:#1b208b;fill-opacity:1"
   points="186.339,50.862 255.986,54.595 325.635,50.862 357.02,49.252 385.406,47.716 392.649,52.91 398.209,56.935 399.599,57.96 498.146,128.778 511.973,138.729 511.973,414.248 0,414.248 0,138.729 112.373,57.96 113.763,56.935 126.566,47.716 154.953,49.252 "
   id="polygon15015" />
		<g
   id="g15029">
			<rect
   x="154.953"
   y="0.016000001"
   style="fill:#6468b8;fill-opacity:1"
   width="202.06799"
   height="66.502998"
   id="rect15017" />
			<polygon
   style="fill:#b54644"
   points="288.05,236.561 301.102,332.308 255.985,396.938 210.868,332.308 223.92,236.561 229.887,192.799 231.486,181.063 280.484,181.063 282.083,192.799 "
   id="polygon15019" />
			<path
   style="fill:#d44842"
   d="m 307.181,143.443 -18.375,39.772 c -4.678,10.125 -13.323,16.362 -22.678,16.362 h -20.284 c -9.355,0 -18,-6.237 -22.678,-16.362 l -18.375,-39.772 c -7.289,-15.778 1.82,-35.495 16.398,-35.495 h 69.595 c 14.578,0 23.687,19.717 16.397,35.495 z"
   id="path15021" />
			<g
   id="g15027">
				<polygon
   style="fill:#6468b8;fill-opacity:1"
   points="154.953,0.236 155.099,0.016 186.339,50.862 195.922,66.519 221.309,107.927 206.604,147.361 193.288,182.989 192.264,185.77 113.763,56.935 113.544,56.495 117.86,50.569 120.714,46.766 "
   id="polygon15023" />
				<polygon
   style="fill:#6468b8;fill-opacity:1"
   points="356.874,0.016 357.02,0.236 394.039,50.569 398.429,56.495 398.209,56.935 319.709,185.77 318.684,182.989 305.369,147.361 290.664,107.927 316.051,66.519 325.635,50.862 "
   id="polygon15025" />
			</g>
		</g>
		<polygon
   style="fill:#383895;fill-opacity:1"
   points="112.373,57.96 112.812,56.715 113.179,55.838 116.251,47.716 117.495,49.912 117.86,50.569 119.25,52.984 193.069,182.625 193.288,182.989 223.723,236.543 223.869,236.835 255.986,293.241 288.104,236.835 288.25,236.543 318.684,182.989 318.904,182.625 392.649,52.91 394.039,50.569 394.405,49.912 395.722,47.716 398.795,55.838 399.16,56.715 399.599,57.96 423.303,120.146 336.316,172.308 375.603,226.592 301.346,332.31 255.986,396.909 210.628,332.31 136.37,226.592 175.657,172.308 88.67,120.146 "
   id="polygon15031" />
	</g>
	<path
   style="fill:#6468b8;fill-opacity:1"
   d="m 458.827,377.302 h -67.636 c -11.879,0 -21.509,-9.63 -21.509,-21.509 v -73.599 h 110.654 v 73.599 c 0,11.879 -9.63,21.509 -21.509,21.509 z"
   id="path15035" />
	<polygon
   style="opacity:0.1;fill:#333386;fill-opacity:1"
   points="512,414.216 512,138.7 399.6,57.903 399.153,56.729 398.8,55.806 395.709,47.699 394.441,49.926 394.084,50.555 357.025,0.239 357.025,0 255.986,0 255.986,414.216 "
   id="polygon15037"
   transform="translate(-1.3411212)" />
</g><rect
       style="fill:#383893;stroke:#1b208b;stroke-width:0.499999;fill-opacity:1"
       id="rect16675"
       width="52.439949"
       height="3.8890872"
       x="78.582428"
       y="87.080208" /><g
       id="g197"
       transform="matrix(2.4532955,0,0,2.4532955,34.593956,30.302079)"><g
         id="g140"
         transform="translate(3.6247131,-18.377746)">
	<g
   id="g138">
		<path
   style="fill:#1b208b;fill-opacity:1"
   d="M 45.344,6.601 H 5.018 C 2.251,6.601 0,8.835 0,11.581 v 23.222 c 0,2.745 2.251,4.979 5.018,4.979 l 9.709,0.957 c -0.556,0.15 -0.961,0.751 -0.961,1.493 0,0.858 0.542,1.531 1.233,1.531 h 20.367 c 0.691,0 1.233,-0.673 1.233,-1.531 0,-0.73 -0.395,-1.323 -0.938,-1.484 l 9.683,-0.966 c 2.768,0 5.02,-2.234 5.02,-4.979 V 11.581 c 0,-2.746 -2.252,-4.98 -5.02,-4.98 z M 35.366,42.764 H 14.999 c -0.058,0 -0.233,-0.188 -0.233,-0.531 0,-0.343 0.175,-0.531 0.233,-0.531 h 20.367 c 0.058,0 0.233,0.188 0.233,0.531 0,0.343 -0.176,0.531 -0.233,0.531 z m 12.92,-7.961 c 0,1.601 -1.319,2.902 -2.941,2.902 H 5.018 c -1.622,0 -2.941,-1.303 -2.941,-2.902 V 11.581 c 0,-1.601 1.319,-2.903 2.941,-2.903 h 40.326 c 1.622,0 2.941,1.303 2.941,2.903 z"
   id="path132" />
		<path
   style="fill:#383893;fill-opacity:1"
   d="M 45.041,10.773 H 5.323 c -0.297,0 -0.537,0.24 -0.537,0.537 v 19.752 c 0,0.297 0.24,0.539 0.537,0.539 h 39.718 c 0.297,0 0.537,-0.242 0.539,-0.539 V 11.31 c 0,-0.297 -0.241,-0.537 -0.539,-0.537 z m -0.536,18.752 c 0,0.554 -0.447,1 -1,1 H 6.86 c -0.553,0 -1,-0.446 -1,-0.998 V 12.848 c 0,-0.553 0.447,-1 1,-1 h 36.645 c 0.553,0 1,0.447 1,1 z"
   id="path134" />
		<path
   style="fill:#1b208b;fill-opacity:1"
   d="m 25.182,33.357 c -0.915,0 -1.658,0.744 -1.658,1.658 0,0.914 0.744,1.657 1.658,1.657 0.914,0 1.658,-0.743 1.658,-1.657 0,-0.914 -0.744,-1.658 -1.658,-1.658 z m 0,2.566 c -0.501,0 -0.908,-0.407 -0.908,-0.907 0,-0.501 0.407,-0.908 0.908,-0.908 0.501,0 0.908,0.407 0.908,0.908 0,0.5 -0.407,0.907 -0.908,0.907 z"
   id="path136" />
	</g>
</g><g
         id="g142">
</g><g
         id="g144">
</g><g
         id="g146">
</g><g
         id="g148">
</g><g
         id="g150">
</g><g
         id="g152">
</g><g
         id="g154">
</g><g
         id="g156">
</g><g
         id="g158">
</g><g
         id="g160">
</g><g
         id="g162">
</g><g
         id="g164">
</g><g
         id="g166">
</g><g
         id="g168">
</g><g
         id="g170">
</g></g></g></svg>
