<?xml version="1.0" encoding="UTF-8" standalone="no"?>
<!-- Uploaded to: SVG Repo, www.svgrepo.com, Generator: SVG Repo Mixer Tools -->

<svg
   width="800px"
   height="800px"
   viewBox="0 0 80 80"
   fill="none"
   version="1.1"
   id="svg28064"
   sodipodi:docname="thumbs-down.svg"
   inkscape:version="1.2.2 (732a01da63, 2022-12-09)"
   xmlns:inkscape="http://www.inkscape.org/namespaces/inkscape"
   xmlns:sodipodi="http://sodipodi.sourceforge.net/DTD/sodipodi-0.dtd"
   xmlns="http://www.w3.org/2000/svg"
   xmlns:svg="http://www.w3.org/2000/svg">
  <sodipodi:namedview
     id="namedview28066"
     pagecolor="#505050"
     bordercolor="#eeeeee"
     borderopacity="1"
     inkscape:showpageshadow="0"
     inkscape:pageopacity="0"
     inkscape:pagecheckerboard="0"
     inkscape:deskcolor="#505050"
     showgrid="false"
     inkscape:zoom="0.36990524"
     inkscape:cx="136.52145"
     inkscape:cy="486.61112"
     inkscape:window-width="1920"
     inkscape:window-height="1017"
     inkscape:window-x="-8"
     inkscape:window-y="-8"
     inkscape:window-maximized="1"
     inkscape:current-layer="svg28064" />
  <path
     d="m 39.7928,71.999607 c -2.4776,0 -3.4196,-1.98312 -3.2278,-5.825 0.1273,-2.5326 0.9803,-9.5933 -2.5942,-13.1712 -3.3337,-3.3354 -4.3033,-3.0391 -8.1019,-7.3461 -3.797,-4.3054 -6.9619,-3.4198 -11.3925,-3.0391 -5.56589,0.4773 -3.6697,-30.4237 0.2531,-29.888 2.7845,0.3807 9.1144,1.1404 10.1269,1.1404 1.0125,0 7.9561,-5.3813999 14.0512,-5.4458999 9.8723,-0.1028 15.3169,1.6469999 15.3169,1.6469999 l 2.8934,6.5664 0.9681,20.0215 -4.6224,9.6316 c 0,0 -6.2025,-1.013 -7.9745,1.7729 -1.7719,2.7858 1.393,6.2056 1.393,14.1842 0,7.97847 -5.8236,9.7513 -7.0893,9.7513 z"
     fill="url(#paint0_linear)"
     id="path27766"
     style="fill:url(#paint0_linear)" />
  <path
     d="m 54.5697,10.130407 -0.3758,1.3707 c -1.1123,0.1182 -2.5436,-0.3884 -4.4981,-0.373 -9.3353,0.0721 -18.2595,2.7536 -22.0887,5.7866 -2.5083,1.9862 -3.6083,4.6293 -5.3802,3.8695 -2.1862,-0.9378 -8.3887,-2.396 -10.67,0.4927 0.6382,-4.9424 1.7765,-8.7367 3.1726,-8.5464 2.7845,0.3807 9.1144,1.1405 10.1269,1.1405 1.0125,0 7.7628,-5.2401999 14.0512,-5.4458999 8.1356,-0.2655 15.3614,1.1359 15.3614,1.1359 z"
     fill="url(#paint1_linear)"
     id="path27768"
     style="fill:url(#paint1_linear)" />
  <path
     d="m 18.4298,40.667207 c 3.6712,-1.013 6.0031,0.6631 7.8794,2.944 1.864,2.2655 3.4809,4.2748 8.1647,7.3139 4.6837,3.0392 4.0823,11.3983 3.7019,14.1842 -0.3805,2.7859 -0.1274,6.8903 1.617,6.8903 -2.4777,0 -3.4196,-1.98312 -3.2279,-5.825 0.1274,-2.5327 0.9803,-9.5933 -2.5942,-13.1712 -3.3337,-3.3354 -4.3033,-3.0391 -8.1018,-7.3461 -3.797,-4.3055 -6.962,-3.4198 -11.3926,-3.0392 0.0016,-0.9609 0.2823,-0.9378 3.9535,-1.9509 z"
     fill="url(#paint2_linear)"
     id="path27770"
     style="fill:url(#paint2_linear)" />
  <path
     d="m 45.4891,48.064007 c -1.7719,2.7859 1.393,6.2057 1.393,14.1843 0,7.97847 -5.8221,9.7513 -7.0893,9.7513 -0.3329,0 -0.629,-0.03684 -0.8944,-0.10744 5.164,-0.32387 8.2737,-6.83956 6.4941,-13.55796 -1.4437,-5.452 -2.1632,-9.8235 0.1948,-12.3868 1.5249,-1.6593 4.5579,-1.3768 7.8778,0.3438 -0.0015,0 -6.204,-1.013 -7.976,1.7728 z"
     fill="url(#paint3_linear)"
     id="path27772"
     style="fill:url(#paint3_linear)" />
  <path
     d="m 45.8373,45.221307 c -3.0376,-1.0131 -10.7099,-3.3968 -16.5212,-8.6693 -14.7278,-13.3614 10.4168,-15.036 15.6099,-26.4635 0.9926,-2.1841999 6.7947,11.4551 6.7947,11.4551 l 1.8763,3.1589 -5.4217,14.4451 z"
     fill="url(#paint4_linear)"
     id="path27774"
     style="fill:url(#paint4_linear)" />
  <path
     d="m 46.2837,44.064107 c -3.0376,-1.0131 -15.4473,-8.9671 -15.4473,-12.8949 0,-11.3354 8.5943,-5.7406 13.2397,-19.116 0.6428,-1.8526 2.9149,-3.4105999 2.9149,-3.4105999 1.8824,1.5364999 4.7313,12.9010999 4.7313,12.9010999 l 1.8762,3.1588 -5.4216,14.4452 z"
     fill="url(#paint5_linear)"
     id="path27776"
     style="fill:url(#paint5_linear)" />
  <path
     d="m 53.2948,9.3214071 5.8144,6.6507999 1.281,27.7836 -14.5544,1.4674 c -3.3414,-1.7989 -3.728,-4.2594 -2.4869,-8.2103 0.5217,-1.6623 -1.6001,-2.1381 -1.7366,-6.9808 -0.0951,-3.3569 2.1018,-3.3722 2.1018,-4.3699 0,-0.9977 -1.0939,-0.9087 -1.4575,-3.799 -0.5185,-4.1351 2.9425,-4.2149 2.9425,-5.099 0,-0.8841 -1.9223,-1.409 -1.8041,-4.7797 0.1503,-4.2747999 -7.7843,-3.4105999 -13.1492,0.4789 -2.203,1.5978 -4.1253,1.762 -5.6257,1.3998 0.0936,0.0046 0.1734,0.0077 0.2332,0.0077 1.0125,0 7.8134,-5.4458999 14.0512,-5.4458999 7.2949,0 12.3392,0.4267 14.3903,0.8964 z"
     fill="url(#paint6_linear)"
     id="path27778"
     style="fill:url(#paint6_linear)" />
  <path
     d="m 54.6325,43.390207 c -4.4935,0 -6.9619,-4.3929 -5.2529,-7.7682 1.709,-3.3753 -3.1649,-7.8435 -2.6587,-10.043 0.5063,-2.1996 1.393,-7.7667 2.088,-8.6877 0.6965,-0.9209 -1.1399,-3.0099 -1.1399,-3.0099 l 5.6963,-0.6969 5.3158,2.3454 -0.1902,16.0813 0.5691,10.0691 z"
     fill="url(#paint7_linear)"
     id="path27780"
     style="fill:url(#paint7_linear)" />
  <path
     d="m 25.869,45.657207 c -2.4669,-2.7966 -4.6669,-3.4029 -7.12,-3.3799 0.7073,-1.142 1.1997,-2.3899 1.1491,-3.6102 -0.1335,-3.1988 0.5707,-7.142 1.1092,-3.0407 0.4096,3.1236 2.5267,6.984 5.0734,10.2687 -0.069,-0.0783 -0.1381,-0.155 -0.2117,-0.2379 z"
     fill="url(#paint8_linear)"
     id="path27782"
     style="fill:url(#paint8_linear)" />
  <path
     d="m 58.0368,46.416907 c -5.3127,0.2026 -14.8643,0.5035 -15.0776,-5.0653 -0.1534,-4.0383 2.7093,-5.363 7.1369,-5.5318 4.4275,-0.1689 6.6413,-0.2533 8.4746,-0.3224 1.8333,-0.069 7.6017,-0.0353 7.6585,4.8412 0.0706,6.0921 -8.1924,6.0783 -8.1924,6.0783 z"
     fill="url(#paint9_linear)"
     id="path27784"
     style="fill:url(#paint9_linear)" />
  <path
     d="m 49.2984,26.286507 c -1.4237,0.0415 -5.6534,-1.0253 -6.0492,-3.713 -0.3114,-2.1136 0.7671,-4.8442 4.4475,-5.4889 4.6623,-0.8165 12.4312,-1.2448 15.3338,-0.1581 1.2963,0.4851 2.427,1.8435 2.4868,3.9018 0.0599,2.0584 -1.4681,4.832 -4.7896,4.9287 -3.3214,0.0951 -5.0519,0.0445 -6.945,0.2686 -2.2767,0.2671 -3.346,0.2272 -4.4843,0.2609 z"
     fill="url(#paint10_linear)"
     id="path27786"
     style="fill:url(#paint10_linear)" />
  <path
     d="m 47.8149,16.893207 c -1.614,0 -3.6084,-1.4245 -3.6084,-3.799 0,-2.3745 0.6168,-4.1319999 4.0824,-4.7965999 3.4656,-0.6647 9.0192,-0.0952 11.1072,0.5694 1.6277,0.5188 2.2307,2.0414999 2.2307,4.5586999 0,2.5173 -1.5649,2.9579 -3.2739,2.9579 -1.709,0 -3.7832,-0.3116 -4.9676,-0.2502 -3.3076,0.1749 -3.9565,0.7598 -5.5704,0.7598 z"
     fill="url(#paint11_linear)"
     id="path27788"
     style="fill:url(#paint11_linear)" />
  <path
     d="m 57.5844,45.293307 c -4.6392,0.1766 -12.9803,0.4452 -13.1476,-3.957 -0.1212,-3.1926 2.3826,-4.2486 6.2486,-4.396 3.866,-0.1473 14.0374,-0.333 14.0712,3.5211 0.0414,4.8166 -7.1722,4.8319 -7.1722,4.8319 z"
     fill="url(#paint12_linear)"
     id="path27790"
     style="fill:url(#paint12_linear)" />
  <path
     d="m 49.7264,25.151307 c -1.2396,0.0353 -4.7098,-0.2594 -5.0427,-2.8273 -0.2256,-1.7376 0.675,-3.9694 3.8798,-4.502 4.0609,-0.6754 10.8234,-1.0376 13.3501,-0.152 1.1276,0.3961 2.111,1.5058 2.1586,3.1927 0.0491,1.6869 -1.505,3.7545 -4.3953,3.8389 -2.8904,0.0844 -4.4291,-0.1842 -6.0783,0.003 -1.9821,0.2226 -2.8812,0.4191 -3.8722,0.4467 z"
     fill="url(#paint13_linear)"
     id="path27792"
     style="fill:url(#paint13_linear)" />
  <path
     d="m 48.5052,16.026907 c -1.3961,0 -3.1204,-1.1465 -3.1204,-3.0591 0,-1.9125 0.5339,-3.3276999 3.5316,-3.8617999 2.9977,-0.5342 7.8011,-0.0768 9.6083,0.4589 1.4068,0.4175 1.93,1.6438999 1.93,3.6714999 0,2.0277 -1.3547,2.3807 -2.8336,2.3807 -1.4789,0 -3.2723,-0.2517 -4.2971,-0.2011 -2.8627,0.1397 -3.4242,0.6109 -4.8188,0.6109 z"
     fill="url(#paint14_linear)"
     id="path27794"
     style="fill:url(#paint14_linear)" />
  <path
     d="m 47.6538,41.334007 c 0.1151,3.033 2.5329,4.4866 5.5874,5.1558 -4.8756,-0.1136 -10.1254,-1.0253 -10.2834,-5.1374 -0.1534,-4.0384 2.7093,-5.363 7.1368,-5.5318 0.4879,-0.0185 0.9466,-0.0369 1.3823,-0.0522 -2.4853,0.7275 -3.9443,2.3684 -3.8231,5.5656 z"
     fill="url(#paint15_linear)"
     id="path27796"
     style="fill:url(#paint15_linear)" />
  <path
     d="m 48.071,45.941007 c -2.8367,-0.6201 -5.0121,-1.9616 -5.1118,-4.5879 -0.1273,-3.3569 1.8318,-4.8381 5.0396,-5.34 -6.5077,2.5986 -4.1728,8.9993 0.0722,9.9279 z"
     fill="url(#paint16_linear)"
     id="path27798"
     style="fill:url(#paint16_linear)" />
  <path
     d="m 40.5169,14.033407 c -0.7502,-1.7237 -4.3202,-1.8327 -7.9745,-0.241 -3.6543,1.5902 -6.0077,4.2778 -5.2575,6.003 0.7502,1.7238 4.3201,1.8327 7.9745,0.241 3.6528,-1.5917 6.0077,-4.2793 5.2575,-6.003 z"
     fill="url(#paint17_radial)"
     id="path27800"
     style="fill:url(#paint17_radial)" />
  <path
     d="m 62.0165,40.519707 c -0.0368,-2.3301 -3.1511,-3.4352 -6.5585,-3.6424 -2.786,-0.1688 -5.8788,1.8035 -5.799,4.0798 0.0798,2.2763 0.4848,4.2932 6.2746,4.0921 3.412,-0.1182 6.1182,-2.2532 6.0829,-4.5295 z"
     fill="url(#paint18_radial)"
     id="path27802"
     style="fill:url(#paint18_radial)" />
  <path
     d="m 62.6347,20.037907 c -0.0199,-3.2264 -3.5653,-2.6078 -6.9727,-2.8319 -4.3201,-0.2855 -7.1844,1.0606 -7.1859,3.3385 -0.0031,2.2778 1.64,3.9371 7.4345,3.9463 3.4134,0.0046 6.7487,-0.3086 6.7241,-4.4529 z"
     fill="url(#paint19_radial)"
     id="path27804"
     style="fill:url(#paint19_radial)" />
  <path
     d="M 59.5113,11.902907 C 59.4944,9.1523071 56.2727,8.7778071 53.2198,8.7762071 c -3.053,-0.003 -6.3667,1.6162999 -6.3682,3.5579999 -0.0016,1.9417 1.4666,3.3569 6.6474,3.3646 3.0514,0.0046 6.0338,-0.2625 6.0123,-3.7959 z"
     fill="url(#paint20_radial)"
     id="path27806"
     style="fill:url(#paint20_radial)" />
  <path
     d="m 47.2105,21.919407 c 0.4848,3.6731 3.3015,3.4582 6.5309,3.8389 -3.7173,0.2778 -5.2775,0.3177 -5.2775,0.3177 -0.3467,0.0338 -0.7349,0.0353 -1.1383,-0.0061 -1.2074,-0.2656 -2.5759,-0.8151 -3.389,-1.8466 -0.2761,-0.3929 -0.5001,-0.8564 -0.6474,-1.4059 -0.0153,-0.0799 -0.0307,-0.1612 -0.0399,-0.2441 -0.2623,-2.1213 0.7671,-4.8442 4.4475,-5.4889 0.5308,-0.0936 1.1031,-0.1811 1.7029,-0.2625 0.2869,-0.0368 0.5999,-0.0752 0.9358,-0.1182 0.0906,-0.0107 0.1811,-0.0215 0.2731,-0.0322 -2.0312,0.9593 -3.7556,2.548 -3.3981,5.2479 z"
     fill="url(#paint21_linear)"
     id="path27808"
     style="fill:url(#paint21_linear)" />
  <path
     d="m 48.1093,26.099507 c -0.2501,0.0077 -0.5155,-0.0015 -0.787,-0.0291 -1.2181,-0.2686 -2.5988,-0.8258 -3.4073,-1.8742 -0.267,-0.3868 -0.4818,-0.8442 -0.626,-1.3799 -0.0153,-0.0798 -0.0261,-0.1596 -0.0399,-0.2425 -0.3728,-2.089 0.6613,-4.5511 3.8768,-5.3661 -5.4861,3.0269 -3.145,8.8888 0.9834,8.8918 z"
     fill="url(#paint22_linear)"
     id="path27810"
     style="fill:url(#paint22_linear)" />
  <path
     d="m 51.3034,16.332407 c -1.6216,0.2379 -2.2874,0.5617 -3.4871,0.5617 -1.6139,0 -3.6083,-1.4244 -3.6083,-3.7989 0,-0.8626 0.0829,-1.6424 0.3513,-2.3193 0.2731,-0.5587 0.6705,-1.0820999 1.2151,-1.5241999 0.5983,-0.4175 1.4114,-0.7413 2.5144,-0.9531 0.741,-0.1428 1.5787,-0.2272 2.4562,-0.2687 -1.6937,0.9839 -4.5625,1.5135 -3.9612,4.8073999 0.6643,3.6378 2.8351,3.1466 4.5196,3.4951 z"
     fill="url(#paint23_linear)"
     id="path27812"
     style="fill:url(#paint23_linear)" />
  <path
     d="m 47.7442,16.891207 c -1.6001,-0.0414 -3.5362,-1.4582 -3.5362,-3.7974 0,-2.175 0.5201,-3.8326999 3.2724,-4.6062999 -4.2987,2.7628999 -2.9195,7.4243999 0.2638,8.4036999 z"
     fill="url(#paint24_linear)"
     id="path27814"
     style="fill:url(#paint24_linear)" />
  <path
     d="m 66.2293,40.338607 c 0.0062,0.5464 -0.0552,1.0422 -0.1703,1.495 0.428,-1.9033 -1.2672,-3.7944 -5.7607,-4.7122 -2.9778,-0.6079 -10.8863,-1.3677 -16.3586,0.8058 1.1813,-1.4275 3.3552,-1.9985 6.1565,-2.1059 4.4276,-0.1689 6.6413,-0.2533 8.4747,-0.3224 1.8333,-0.0721 7.6001,-0.0368 7.6584,4.8397 z"
     fill="url(#paint25_linear)"
     id="path27816"
     style="fill:url(#paint25_linear)" />
  <path
     d="m 65.5174,20.957407 c -0.0062,2.0445 -1.5388,4.7046 -4.7912,4.7982 -3.3214,0.0952 -5.0519,0.0445 -6.945,0.2686 -2.2752,0.2686 -3.3445,0.2287 -4.4828,0.2609 -0.8607,0.0246 -2.9839,-0.2348 -4.4276,-1.1327 1.6232,-0.5634 4.268,-1.4106 7.9899,-1.1727 8.918,0.574 11.4554,-0.505 12.6567,-3.0223 z"
     fill="url(#paint26_linear)"
     id="path27818"
     style="fill:url(#paint26_linear)" />
  <path
     d="m 47.3854,35.499307 c -1.8977,0.0384 -4.9123,-1.079 -4.9905,-5.0222 -0.0783,-3.9417 3.3689,-4.8811 4.8877,-4.9118 1.5189,-0.0307 6.8285,-0.3929 13.3778,-0.5234 6.5493,-0.1304 7.4268,3.3861 7.4636,5.228 0.0368,1.8434 -1.1307,5.1757 -5.0703,5.2555 -11.3911,0.2287 -15.6683,-0.0261 -15.6683,-0.0261 z"
     fill="url(#paint27_linear)"
     id="path27820"
     style="fill:url(#paint27_linear)" />
  <path
     d="m 48.4039,34.355707 c -1.6507,0.0322 -4.2679,-0.8243 -4.3278,-3.8649 -0.0613,-3.0422 2.9379,-3.7729 4.2573,-3.799 1.3209,-0.0261 5.9371,-0.3162 11.6303,-0.4297 5.6932,-0.1136 6.4496,2.597 6.4772,4.0199 0.0291,1.4214 -0.1672,3.9939 -3.593,4.063 -9.8998,0.1964 -14.444,0.0107 -14.444,0.0107 z"
     fill="url(#paint28_linear)"
     id="path27822"
     style="fill:url(#paint28_linear)" />
  <path
     d="m 46.468,30.857607 c 0.1902,4.0475 3.0146,4.0598 6.2026,4.7582 -3.728,-0.023 -5.2852,-0.1151 -5.2852,-0.1151 -1.8977,0.0384 -4.9123,-1.0791 -4.9905,-5.0223 -0.0783,-3.9416 3.3689,-4.881 4.8877,-4.9117 0.5477,-0.0108 1.5894,-0.0645 3.0008,-0.1351 -2.1048,0.8672 -3.955,2.4482 -3.8154,5.426 z"
     fill="url(#paint29_linear)"
     id="path27824"
     style="fill:url(#paint29_linear)" />
  <path
     d="m 64.7888,30.438307 c 0.1319,-3.2233 -3.4472,-3.8296 -6.8576,-3.9923 -3.4104,-0.1627 -7.2013,1.561 -7.3102,3.8358 -0.109,2.2747 1.4543,4.0091 7.2411,4.29 3.4104,0.1643 6.7579,0.0077 6.9267,-4.1335 z"
     fill="url(#paint30_radial)"
     id="path27826"
     style="fill:url(#paint30_radial)" />
  <path
     d="m 47.0308,35.492807 c -1.8962,-0.1013 -4.5625,-1.3109 -4.6362,-5.0146 -0.0751,-3.7483 3.0361,-4.7813 4.6485,-4.8995 -6.2394,2.5188 -4.1943,9.5426 -0.0123,9.9141 z"
     fill="url(#paint31_linear)"
     id="path27828"
     style="fill:url(#paint31_linear)" />
  <path
     d="m 68.113,30.668507 c -0.8223,-5.8326 -16.2358,-4.7643 -24.5647,-3.5118 1.1246,-1.2049 2.7968,-1.5702 3.7341,-1.5902 1.5188,-0.0307 6.8285,-0.3929 13.3778,-0.5234 6.5492,-0.1305 7.4268,3.386 7.4636,5.2279 0.0015,0.1259 -0.0016,0.2594 -0.0108,0.3975 z"
     fill="url(#paint32_linear)"
     id="path27830"
     style="fill:url(#paint32_linear)" />
  <path
     d="m 60.3918,17.680207 c -2.9855,-0.1321 -10.8848,-1.1144 -16.644,1.9723 0.6428,-1.1941 1.887,-2.2087 3.9474,-2.5694 4.6622,-0.8166 12.4311,-1.2449 15.3337,-0.1581 1.2964,0.485 2.4271,1.8434 2.4869,3.9017 -0.1918,-1.7897 -1.8962,-3.0038 -5.124,-3.1465 z"
     fill="url(#paint33_linear)"
     id="path27832"
     style="fill:url(#paint33_linear)" />
  <path
     d="M 61.3982,11.198807 C 59.4422,9.7100071 56.0609,8.8304071 51.1823,9.6547071 c -3.013,0.5095999 -5.078,0.6829999 -6.4357,0.7198999 0.5431,-0.9823999 1.5909,-1.7037999 3.5423,-2.0782999 3.4657,-0.6646 9.0193,-0.0952 11.1072,0.5695 1.0724,0.3438 1.6983,1.1235 2.0021,2.3329999 z"
     fill="url(#paint34_linear)"
     id="path27834"
     style="fill:url(#paint34_linear)" />
  <path
     d="m 44.8479,15.230807 c 3.6144,1.317 5.3864,-0.637 9.254,-0.637 4.0164,0 5.931,1.6224 7.3577,0.0798 -0.4479,1.4229 -1.7305,1.71 -3.1066,1.71 -1.7091,0 -3.7832,-0.3116 -4.9691,-0.2502 -3.3076,0.1734 -3.955,0.7598 -5.569,0.7598 -1.0447,0 -2.2475,-0.5971 -2.967,-1.6624 z"
     fill="url(#paint35_linear)"
     id="path27836"
     style="fill:url(#paint35_linear)" />
  <path
     d="m 14.7312,12.730207 c 2.7844,0.3807 9.1143,1.1404 10.1268,1.1404 -9.1803,6.5649 -5.0979,20.5281 -1.7121,27.5902 0.4756,0.9916 0.7686,1.8051 0.9267,2.4958 -3.0545,-2.33 -5.8804,-1.6577 -9.5961,-1.3384 -5.56589,0.4773 -3.6682,-30.4237 0.2547,-29.888 z"
     fill="url(#paint36_linear)"
     id="path27838"
     style="fill:url(#paint36_linear)" />
  <path
     d="m 20.5193,19.074207 c -0.9496,1.2663 -0.1273,-1.4566 0.6336,-3.4198 0.6459,-1.67 -4.3078,-0.683 -8.0987,-1.0929 0.4955,-1.2233 1.0616,-1.9156 1.6768,-1.8311 2.7845,0.3806 9.1144,1.1404 10.1269,1.1404 -1.4283,1.2141 -3.3905,3.9371 -4.3386,5.2034 z"
     fill="url(#paint37_linear)"
     id="path27840"
     style="fill:url(#paint37_linear)" />
  <path
     d="m 24.8563,13.868607 c -0.787,0.6707 -1.7366,1.8004 -2.5912,2.8917 0,0 -4.6085,-2.3591 -9.55,-1.2494 0.5692,-1.805 1.2534,-2.8856 2.0143,-2.7812 2.786,0.3791 9.1144,1.1389 10.1269,1.1389 z"
     fill="url(#paint38_linear)"
     id="path27842"
     style="fill:url(#paint38_linear)" />
  <path
     d="m 42.3138,60.109707 c -1.8042,-0.3899 -3.2662,2.1028 -4.0916,5.0115 -0.675,2.3791 0.2424,5.40906 2.0143,5.74982 1.772,0.34228 3.4074,0.35764 4.3846,-4.68462 0.5738,-2.97 -0.5431,-5.696 -2.3073,-6.0767 z"
     fill="url(#paint39_radial)"
     id="path27844"
     style="fill:url(#paint39_radial)" />
  <path
     d="m 47.7443,16.891607 c -0.9926,-0.1044 -1.8916,-0.637 -2.5099,-1.3692 -0.6275,-0.7383 -0.9205,-1.7022 -0.856,-2.6708 0.0061,-0.9746 0.1534,-1.9708 0.7057,-2.7598 0.5477,-0.7965999 1.4681,-1.2708999 2.3963,-1.6039999 -0.9573,0.2165 -1.9591,0.6125 -2.6004,1.4521 -0.6505,0.8303999 -0.8008,1.9124999 -0.833,2.9055999 -0.043,1.0161 0.2807,2.0967 0.9972,2.8458 0.6949,0.7567 1.6983,1.2202 2.7001,1.2003 z"
     fill="#804b24"
     id="path27846" />
  <path
     d="m 46.152,25.726207 c -0.6536,-0.284 -1.2565,-0.6723 -1.7551,-1.1558 -0.5078,-0.4774 -0.7778,-1.1313 -0.9634,-1.7944 l 0.0015,0.0108 c -0.2393,-1.2095 -0.0368,-2.4973 0.6735,-3.5027 0.6934,-1.0192 1.8195,-1.6854 3.0161,-2.0752 -1.2319,0.2379 -2.473,0.838 -3.2524,1.9079 -0.385,0.5265 -0.652,1.142 -0.7809,1.7851 -0.1304,0.6431 -0.0705,1.3154 0.0491,1.9432 l 0.0031,0.0108 c 0.1948,0.6968 0.5416,1.3952 1.1138,1.8664 0.5477,0.4866 1.2196,0.7859 1.8947,1.0039 z"
     fill="#804b24"
     id="path27848" />
  <path
     d="m 47.0309,35.494707 c -1.1736,-0.1335 -2.3089,-0.6216 -3.1173,-1.4428 -0.8116,-0.8212 -1.2504,-1.9524 -1.3209,-3.1051 -0.1182,-1.1481 0.0675,-2.3469 0.7241,-3.3001 0.6474,-0.9562 1.7059,-1.5978 2.8381,-1.9294 -1.1598,0.2118 -2.3135,0.7844 -3.0468,1.7805 -0.7486,0.9885 -0.9465,2.2824 -0.8468,3.4766 0.0982,1.2003 0.5691,2.4252 1.4743,3.2586 0.8959,0.8427 2.1125,1.2494 3.2953,1.2617 z"
     fill="#804b24"
     id="path27850" />
  <path
     d="m 48.0711,45.941007 c -1.2549,-0.3438 -2.5022,-0.8181 -3.4917,-1.6332 -0.9972,-0.8104 -1.5372,-2.0614 -1.4543,-3.343 -0.0169,-1.2725 0.3988,-2.571 1.3653,-3.4137 0.9527,-0.8534 2.2383,-1.2679 3.5071,-1.538 -1.2872,0.1519 -2.6265,0.4743 -3.6743,1.3461 -1.0724,0.8596 -1.528,2.284 -1.5295,3.6025 -0.0691,1.34 0.5339,2.7429 1.6262,3.5441 1.0708,0.8212 2.3702,1.208 3.6512,1.4352 z"
     fill="#804b24"
     id="path27852" />
  <path
     d="m 43.7493,19.653907 c 0.8637,-1.4965 2.5236,-2.2717 4.1636,-2.4927 1.6692,-0.2579 3.3506,-0.4344 5.0366,-0.5418 1.683,-0.1428 3.3721,-0.2318 5.0612,-0.2257 0.8437,0.0108 1.689,0.0323 2.5282,0.1152 0.8392,0.0675 1.686,0.1535 2.493,0.419 -1.597,-0.6002 -3.3291,-0.6953 -5.0166,-0.7552 -1.6968,-0.043 -3.3951,0.0046 -5.0888,0.1151 -1.6906,0.1459 -3.3766,0.3592 -5.0489,0.6554 -0.8407,0.1382 -1.6783,0.3991 -2.4147,0.8473 -0.7333,0.4528 -1.3347,1.1051 -1.7136,1.8634 z"
     fill="#804b24"
     id="path27854" />
  <path
     d="m 43.5483,27.156807 c 0.6474,-0.6446 1.4805,-1.0698 2.3503,-1.2863 0.8653,-0.2594 1.7751,-0.2026 2.6894,-0.244 l 5.46,-0.1581 5.457,-0.2686 c 1.8103,-0.1105 3.6528,-0.1351 5.3879,0.4589 -1.6906,-0.7214 -3.5899,-0.7797 -5.3925,-0.6799 l -5.46,0.158 -5.457,0.2702 c -0.8975,0.0614 -1.841,0.0184 -2.7292,0.3085 -0.8776,0.2748 -1.6983,0.7583 -2.3059,1.4413 z"
     fill="#804b24"
     id="path27856" />
  <path
     d="m 63.0535,35.526207 c -1.3055,-0.0031 -2.6126,-0.0399 -3.9182,-0.0277 l -3.9166,-0.0076 -3.9152,-0.0538 c -1.304,-0.0076 -2.6111,-0.0153 -3.9105,-0.0675 h -0.0107 c -1.2841,0.0215 -2.6142,-0.4175 -3.5393,-1.3369 -0.9435,-0.9102 -1.3884,-2.2349 -1.4482,-3.5549 0.0107,0.6616 0.0813,1.3293 0.2838,1.9693 0.2056,0.6385 0.5569,1.2356 1.034,1.7161 0.9512,0.9777 2.3227,1.4627 3.6758,1.4658 h -0.0107 c 2.6157,0.1581 5.2283,0.1596 7.841,0.1182 2.6142,-0.0292 5.2253,-0.0783 7.8348,-0.221 z"
     fill="#804b24"
     id="path27858" />
  <defs
     id="defs28062">
    <linearGradient
       id="paint0_linear"
       x1="53.6692"
       y1="39.2608"
       x2="34.6268"
       y2="40.0249"
       gradientUnits="userSpaceOnUse"
       gradientTransform="matrix(1,0,0,-1,0,79.999607)">
      <stop
         offset="0.00132565"
         stop-color="#FFCB4B"
         id="stop27860" />
      <stop
         offset="1"
         stop-color="#FFD748"
         id="stop27862" />
    </linearGradient>
    <linearGradient
       id="paint1_linear"
       x1="33.1154"
       y1="65.6657"
       x2="32.7325"
       y2="55.6521"
       gradientUnits="userSpaceOnUse"
       gradientTransform="matrix(1,0,0,-1,0,79.999607)">
      <stop
         offset="0.00132565"
         stop-color="#FFCB4B"
         id="stop27865" />
      <stop
         offset="1"
         stop-color="#FFD748"
         id="stop27867" />
    </linearGradient>
    <linearGradient
       id="paint2_linear"
       x1="30.6742"
       y1="27.9693"
       x2="45.0193"
       y2="48.4791"
       gradientUnits="userSpaceOnUse"
       gradientTransform="matrix(1,0,0,-1,0,79.999607)">
      <stop
         offset="0.00132565"
         stop-color="#FFCB4B"
         id="stop27870" />
      <stop
         offset="1"
         stop-color="#FFD748"
         id="stop27872" />
    </linearGradient>
    <linearGradient
       id="paint3_linear"
       x1="20.2932"
       y1="19.7978"
       x2="57.0336"
       y2="22.5495"
       gradientUnits="userSpaceOnUse"
       gradientTransform="matrix(1,0,0,-1,0,79.999607)">
      <stop
         offset="0.3118"
         stop-color="#FFBC47"
         stop-opacity="0"
         id="stop27875" />
      <stop
         offset="1"
         stop-color="#FF8900"
         id="stop27877" />
    </linearGradient>
    <linearGradient
       id="paint4_linear"
       x1="19.5935"
       y1="52.4637"
       x2="67.8399"
       y2="52.4637"
       gradientUnits="userSpaceOnUse"
       gradientTransform="matrix(1,0,0,-1,0,79.999607)">
      <stop
         stop-color="#FFBC47"
         stop-opacity="0"
         id="stop27880" />
      <stop
         offset="1"
         stop-color="#FFA754"
         id="stop27882" />
    </linearGradient>
    <linearGradient
       id="paint5_linear"
       x1="11.8141"
       y1="52.5362"
       x2="107.13"
       y2="55.5726"
       gradientUnits="userSpaceOnUse"
       gradientTransform="matrix(1,0,0,-1,0,79.999607)">
      <stop
         stop-color="#FFBC47"
         stop-opacity="0"
         id="stop27885" />
      <stop
         offset="1"
         stop-color="#C86F34"
         id="stop27887" />
    </linearGradient>
    <linearGradient
       id="paint6_linear"
       x1="26.959"
       y1="64.9917"
       x2="42.722"
       y2="56.4499"
       gradientUnits="userSpaceOnUse"
       gradientTransform="matrix(1,0,0,-1,0,79.999607)">
      <stop
         stop-color="#FFBC47"
         stop-opacity="0"
         id="stop27890" />
      <stop
         offset="1"
         stop-color="#C86F34"
         id="stop27892" />
    </linearGradient>
    <linearGradient
       id="paint7_linear"
       x1="45.0161"
       y1="52.8643"
       x2="58.1604"
       y2="51.1381"
       gradientUnits="userSpaceOnUse"
       gradientTransform="matrix(1,0,0,-1,0,79.999607)">
      <stop
         stop-color="#643800"
         stop-opacity="0"
         id="stop27895" />
      <stop
         offset="1"
         stop-color="#643800"
         id="stop27897" />
    </linearGradient>
    <linearGradient
       id="paint8_linear"
       x1="21.6881"
       y1="23.8457"
       x2="24.5391"
       y2="71.0529"
       gradientUnits="userSpaceOnUse"
       gradientTransform="matrix(1,0,0,-1,0,79.999607)">
      <stop
         stop-color="#FFBC47"
         stop-opacity="0"
         id="stop27900" />
      <stop
         offset="1"
         stop-color="#FFA754"
         id="stop27902" />
    </linearGradient>
    <linearGradient
       id="paint9_linear"
       x1="65.3286"
       y1="39.006"
       x2="46.6765"
       y2="39.006"
       gradientUnits="userSpaceOnUse"
       gradientTransform="matrix(1,0,0,-1,0,79.999607)">
      <stop
         offset="0.00132565"
         stop-color="#FFBC47"
         id="stop27905" />
      <stop
         offset="1"
         stop-color="#FFD748"
         id="stop27907" />
    </linearGradient>
    <linearGradient
       id="paint10_linear"
       x1="65.3285"
       y1="58.7184"
       x2="46.6661"
       y2="58.7184"
       gradientUnits="userSpaceOnUse"
       gradientTransform="matrix(1,0,0,-1,0,79.999607)">
      <stop
         offset="0.00132565"
         stop-color="#FFBC47"
         id="stop27910" />
      <stop
         offset="1"
         stop-color="#FFD748"
         id="stop27912" />
    </linearGradient>
    <linearGradient
       id="paint11_linear"
       x1="65.3286"
       y1="67.5521"
       x2="46.6765"
       y2="67.5521"
       gradientUnits="userSpaceOnUse"
       gradientTransform="matrix(1,0,0,-1,0,79.999607)">
      <stop
         offset="0.00132565"
         stop-color="#FFBC47"
         id="stop27915" />
      <stop
         offset="1"
         stop-color="#FFD748"
         id="stop27917" />
    </linearGradient>
    <linearGradient
       id="paint12_linear"
       x1="44.162"
       y1="39.0984"
       x2="53.8772"
       y2="38.877"
       gradientUnits="userSpaceOnUse"
       gradientTransform="matrix(1,0,0,-1,0,79.999607)">
      <stop
         offset="0.00132565"
         stop-color="#FFCB4B"
         id="stop27920" />
      <stop
         offset="1"
         stop-color="#FFD748"
         id="stop27922" />
    </linearGradient>
    <linearGradient
       id="paint13_linear"
       x1="61.1514"
       y1="58.8499"
       x2="51.2483"
       y2="58.8499"
       gradientUnits="userSpaceOnUse"
       gradientTransform="matrix(1,0,0,-1,0,79.999607)">
      <stop
         offset="0.00132565"
         stop-color="#FFCB4B"
         id="stop27925" />
      <stop
         offset="1"
         stop-color="#FFD748"
         id="stop27927" />
    </linearGradient>
    <linearGradient
       id="paint14_linear"
       x1="61.1514"
       y1="67.5527"
       x2="51.2483"
       y2="67.5527"
       gradientUnits="userSpaceOnUse"
       gradientTransform="matrix(1,0,0,-1,0,79.999607)">
      <stop
         offset="0.00132565"
         stop-color="#FFCB4B"
         id="stop27930" />
      <stop
         offset="1"
         stop-color="#FFD748"
         id="stop27932" />
    </linearGradient>
    <linearGradient
       id="paint15_linear"
       x1="49.0629"
       y1="38.8702"
       x2="43.779"
       y2="38.8702"
       gradientUnits="userSpaceOnUse"
       gradientTransform="matrix(1,0,0,-1,0,79.999607)">
      <stop
         offset="0.00132565"
         stop-color="#FBA23B"
         stop-opacity="0"
         id="stop27935" />
      <stop
         offset="1"
         stop-color="#FBA23B"
         id="stop27937" />
    </linearGradient>
    <linearGradient
       id="paint16_linear"
       x1="48.1134"
       y1="39.0229"
       x2="42.0368"
       y2="39.0229"
       gradientUnits="userSpaceOnUse"
       gradientTransform="matrix(1,0,0,-1,0,79.999607)">
      <stop
         offset="0.00132565"
         stop-color="#FFBC47"
         id="stop27940" />
      <stop
         offset="1"
         stop-color="#E89043"
         id="stop27942" />
    </linearGradient>
    <radialGradient
       id="paint17_radial"
       cx="0"
       cy="0"
       r="1"
       gradientUnits="userSpaceOnUse"
       gradientTransform="matrix(6.8015285,-2.9609324,-1.3747232,-3.157863,33.4032,18.242307)">
      <stop
         stop-color="#FBE07A"
         id="stop27945" />
      <stop
         offset="1"
         stop-color="#FFD748"
         stop-opacity="0"
         id="stop27947" />
    </radialGradient>
    <radialGradient
       id="paint18_radial"
       cx="0"
       cy="0"
       r="1"
       gradientUnits="userSpaceOnUse"
       gradientTransform="matrix(6.3430778,-0.22451791,-0.14735822,-4.1631629,55.8467,40.947107)">
      <stop
         stop-color="#FBE07A"
         id="stop27950" />
      <stop
         offset="1"
         stop-color="#FFD748"
         id="stop27952" />
    </radialGradient>
    <radialGradient
       id="paint19_radial"
       cx="0"
       cy="0"
       r="1"
       gradientUnits="userSpaceOnUse"
       gradientTransform="matrix(6.8163269,0.00647248,0.00348916,-3.6745183,55.5394,20.494407)">
      <stop
         stop-color="#FBE07A"
         id="stop27955" />
      <stop
         offset="1"
         stop-color="#FFD748"
         stop-opacity="0"
         id="stop27957" />
    </radialGradient>
    <radialGradient
       id="paint20_radial"
       cx="0"
       cy="0"
       r="1"
       gradientUnits="userSpaceOnUse"
       gradientTransform="matrix(6.2409072,0.00587757,0.00367862,-3.9060183,53.1813,12.233107)">
      <stop
         stop-color="#FBE07A"
         id="stop27960" />
      <stop
         offset="1"
         stop-color="#FFD748"
         stop-opacity="0"
         id="stop27962" />
    </radialGradient>
    <linearGradient
       id="paint21_linear"
       x1="49.6959"
       y1="58.6129"
       x2="42.0377"
       y2="58.6129"
       gradientUnits="userSpaceOnUse"
       gradientTransform="matrix(1,0,0,-1,0,79.999607)">
      <stop
         offset="0.00132565"
         stop-color="#FBA23B"
         stop-opacity="0"
         id="stop27965" />
      <stop
         offset="1"
         stop-color="#FBA23B"
         id="stop27967" />
    </linearGradient>
    <linearGradient
       id="paint22_linear"
       x1="48.068"
       y1="58.3447"
       x2="43.9428"
       y2="58.3447"
       gradientUnits="userSpaceOnUse"
       gradientTransform="matrix(1,0,0,-1,0,79.999607)">
      <stop
         offset="0.00132565"
         stop-color="#FFBC47"
         id="stop27970" />
      <stop
         offset="1"
         stop-color="#FBA23B"
         id="stop27972" />
    </linearGradient>
    <linearGradient
       id="paint23_linear"
       x1="49.4205"
       y1="67.6029"
       x2="40.4645"
       y2="65.9582"
       gradientUnits="userSpaceOnUse"
       gradientTransform="matrix(1,0,0,-1,0,79.999607)">
      <stop
         offset="0.00132565"
         stop-color="#FBA23B"
         stop-opacity="0"
         id="stop27975" />
      <stop
         offset="1"
         stop-color="#FBA23B"
         id="stop27977" />
    </linearGradient>
    <linearGradient
       id="paint24_linear"
       x1="48.4945"
       y1="67.3101"
       x2="44.7089"
       y2="67.3101"
       gradientUnits="userSpaceOnUse"
       gradientTransform="matrix(1,0,0,-1,0,79.999607)">
      <stop
         offset="0.00132565"
         stop-color="#FFBC47"
         id="stop27980" />
      <stop
         offset="1"
         stop-color="#FBA23B"
         id="stop27982" />
    </linearGradient>
    <linearGradient
       id="paint25_linear"
       x1="54.529"
       y1="37.8317"
       x2="56.9364"
       y2="49.4826"
       gradientUnits="userSpaceOnUse"
       gradientTransform="matrix(1,0,0,-1,0,79.999607)">
      <stop
         stop-color="#FFBC47"
         stop-opacity="0"
         id="stop27985" />
      <stop
         offset="1"
         stop-color="#C86F34"
         id="stop27987" />
    </linearGradient>
    <linearGradient
       id="paint26_linear"
       x1="56.3577"
       y1="60.8509"
       x2="53.7311"
       y2="51.3741"
       gradientUnits="userSpaceOnUse"
       gradientTransform="matrix(1,0,0,-1,0,79.999607)">
      <stop
         stop-color="#FFBC47"
         stop-opacity="0"
         id="stop27990" />
      <stop
         offset="1"
         stop-color="#C86F34"
         id="stop27992" />
    </linearGradient>
    <linearGradient
       id="paint27_linear"
       x1="65.3287"
       y1="49.6691"
       x2="46.6766"
       y2="49.6691"
       gradientUnits="userSpaceOnUse"
       gradientTransform="matrix(1,0,0,-1,0,79.999607)">
      <stop
         offset="0.00132565"
         stop-color="#FFBC47"
         id="stop27995" />
      <stop
         offset="1"
         stop-color="#FFD748"
         id="stop27997" />
    </linearGradient>
    <linearGradient
       id="paint28_linear"
       x1="45.924"
       y1="49.1486"
       x2="60.2119"
       y2="49.6705"
       gradientUnits="userSpaceOnUse"
       gradientTransform="matrix(1,0,0,-1,0,79.999607)">
      <stop
         offset="0.00132565"
         stop-color="#FFCB4B"
         id="stop28000" />
      <stop
         offset="0.7382"
         stop-color="#FFD748"
         id="stop28002" />
      <stop
         offset="1"
         stop-color="#FFCB4B"
         id="stop28004" />
    </linearGradient>
    <linearGradient
       id="paint29_linear"
       x1="51.4997"
       y1="49.4764"
       x2="40.825"
       y2="49.4764"
       gradientUnits="userSpaceOnUse"
       gradientTransform="matrix(1,0,0,-1,0,79.999607)">
      <stop
         offset="0.00132565"
         stop-color="#FBA23B"
         stop-opacity="0"
         id="stop28007" />
      <stop
         offset="1"
         stop-color="#FBA23B"
         id="stop28009" />
    </linearGradient>
    <radialGradient
       id="paint30_radial"
       cx="0"
       cy="0"
       r="1"
       gradientUnits="userSpaceOnUse"
       gradientTransform="matrix(6.9715336,0.33316671,0.21867883,-4.5758677,57.6977,30.501807)">
      <stop
         stop-color="#FBE07A"
         id="stop28012" />
      <stop
         offset="1"
         stop-color="#FFD748"
         stop-opacity="0"
         id="stop28014" />
    </radialGradient>
    <linearGradient
       id="paint31_linear"
       x1="46.5377"
       y1="49.4637"
       x2="43.1673"
       y2="49.4637"
       gradientUnits="userSpaceOnUse"
       gradientTransform="matrix(1,0,0,-1,0,79.999607)">
      <stop
         offset="0.00132565"
         stop-color="#FFBC47"
         id="stop28017" />
      <stop
         offset="1"
         stop-color="#FBA23B"
         id="stop28019" />
    </linearGradient>
    <linearGradient
       id="paint32_linear"
       x1="55.414"
       y1="48.4361"
       x2="57.4413"
       y2="61.3219"
       gradientUnits="userSpaceOnUse"
       gradientTransform="matrix(1,0,0,-1,0,79.999607)">
      <stop
         stop-color="#FFBC47"
         stop-opacity="0"
         id="stop28022" />
      <stop
         offset="1"
         stop-color="#C86F34"
         id="stop28024" />
    </linearGradient>
    <linearGradient
       id="paint33_linear"
       x1="54.0091"
       y1="58.4048"
       x2="59.2033"
       y2="69.6743"
       gradientUnits="userSpaceOnUse"
       gradientTransform="matrix(1,0,0,-1,0,79.999607)">
      <stop
         stop-color="#FFBC47"
         stop-opacity="0"
         id="stop28027" />
      <stop
         offset="1"
         stop-color="#C86F34"
         id="stop28029" />
    </linearGradient>
    <linearGradient
       id="paint34_linear"
       x1="52.9748"
       y1="68.2908"
       x2="53.735"
       y2="75.4145"
       gradientUnits="userSpaceOnUse"
       gradientTransform="matrix(1,0,0,-1,0,79.999607)">
      <stop
         stop-color="#FFBC47"
         stop-opacity="0"
         id="stop28032" />
      <stop
         offset="1"
         stop-color="#C86F34"
         id="stop28034" />
    </linearGradient>
    <linearGradient
       id="paint35_linear"
       x1="53.1541"
       y1="67.2101"
       x2="53.1541"
       y2="62.057"
       gradientUnits="userSpaceOnUse"
       gradientTransform="matrix(1,0,0,-1,0,79.999607)">
      <stop
         stop-color="#FFBC47"
         stop-opacity="0"
         id="stop28037" />
      <stop
         offset="1"
         stop-color="#C86F34"
         id="stop28039" />
    </linearGradient>
    <linearGradient
       id="paint36_linear"
       x1="18.3641"
       y1="52.9841"
       x2="2.21357"
       y2="77.3875"
       gradientUnits="userSpaceOnUse"
       gradientTransform="matrix(1,0,0,-1,0,79.999607)">
      <stop
         stop-color="#C86F34"
         stop-opacity="0"
         id="stop28042" />
      <stop
         offset="1"
         stop-color="#C86F34"
         id="stop28044" />
    </linearGradient>
    <linearGradient
       id="paint37_linear"
       x1="17.2977"
       y1="58.3816"
       x2="19.9585"
       y2="70.254"
       gradientUnits="userSpaceOnUse"
       gradientTransform="matrix(1,0,0,-1,0,79.999607)">
      <stop
         stop-color="#FFBC47"
         stop-opacity="0"
         id="stop28047" />
      <stop
         offset="1"
         stop-color="#C86F34"
         id="stop28049" />
    </linearGradient>
    <linearGradient
       id="paint38_linear"
       x1="18.9089"
       y1="60.6097"
       x2="18.5287"
       y2="75.142"
       gradientUnits="userSpaceOnUse"
       gradientTransform="matrix(1,0,0,-1,0,79.999607)">
      <stop
         stop-color="#FFBC47"
         stop-opacity="0"
         id="stop28052" />
      <stop
         offset="1"
         stop-color="#C86F34"
         id="stop28054" />
    </linearGradient>
    <radialGradient
       id="paint39_radial"
       cx="0"
       cy="0"
       r="1"
       gradientUnits="userSpaceOnUse"
       gradientTransform="matrix(1.2687617,-6.57092,-3.854681,-0.74429023,41.4453,65.522407)">
      <stop
         stop-color="#FBE07A"
         id="stop28057" />
      <stop
         offset="1"
         stop-color="#FFD748"
         stop-opacity="0"
         id="stop28059" />
    </radialGradient>
  </defs>
</svg>
