<?xml version="1.0" encoding="UTF-8" standalone="no"?>
<!-- Created with Inkscape (http://www.inkscape.org/) -->

<svg
   width="92.872894mm"
   height="308.29501mm"
   viewBox="0 0 92.872894 308.29501"
   version="1.1"
   id="svg4612"
   xml:space="preserve"
   sodipodi:docname="topmodel.svg"
   inkscape:version="1.2.2 (732a01da63, 2022-12-09)"
   xmlns:inkscape="http://www.inkscape.org/namespaces/inkscape"
   xmlns:sodipodi="http://sodipodi.sourceforge.net/DTD/sodipodi-0.dtd"
   xmlns="http://www.w3.org/2000/svg"
   xmlns:svg="http://www.w3.org/2000/svg"><sodipodi:namedview
     id="namedview4614"
     pagecolor="#505050"
     bordercolor="#eeeeee"
     borderopacity="1"
     inkscape:showpageshadow="0"
     inkscape:pageopacity="0"
     inkscape:pagecheckerboard="0"
     inkscape:deskcolor="#505050"
     inkscape:document-units="mm"
     showgrid="false"
     inkscape:zoom="0.52724989"
     inkscape:cx="750.1187"
     inkscape:cy="629.68245"
     inkscape:window-width="1920"
     inkscape:window-height="1017"
     inkscape:window-x="-8"
     inkscape:window-y="-8"
     inkscape:window-maximized="1"
     inkscape:current-layer="layer1" /><defs
     id="defs4609"><inkscape:path-effect
       effect="bspline"
       id="path-effect16684"
       is_visible="true"
       lpeversion="1"
       weight="33.333333"
       steps="2"
       helper_size="0"
       apply_no_weight="true"
       apply_with_weight="true"
       only_selected="false" /><inkscape:path-effect
       effect="bspline"
       id="path-effect7784"
       is_visible="true"
       lpeversion="1"
       weight="33.333333"
       steps="2"
       helper_size="0"
       apply_no_weight="true"
       apply_with_weight="true"
       only_selected="false" /><inkscape:path-effect
       effect="bspline"
       id="path-effect6996"
       is_visible="true"
       lpeversion="1"
       weight="33.333333"
       steps="2"
       helper_size="0"
       apply_no_weight="true"
       apply_with_weight="true"
       only_selected="false" /><inkscape:path-effect
       effect="bspline"
       id="path-effect16684-5"
       is_visible="true"
       lpeversion="1"
       weight="33.333333"
       steps="2"
       helper_size="0"
       apply_no_weight="true"
       apply_with_weight="true"
       only_selected="false" /></defs><g
     inkscape:label="Layer 1"
     inkscape:groupmode="layer"
     id="layer1"
     transform="translate(-82.015164,26.050725)"><path
       style="opacity:0.996;fill:#452e7f;fill-opacity:1;stroke:none;stroke-width:2"
       d="m 88.361885,131.79008 c -0.376528,1.10823 -0.460165,3.65914 -0.355489,5.10188 0.104675,1.44274 0.397399,1.77727 0.920094,2.6764 0.522695,0.89912 1.27541,2.36273 1.860936,3.13624 0.585526,0.77351 1.003697,0.85714 1.902806,1.08716 0.899108,0.23001 2.279079,0.60637 3.115322,0.68994 0.836243,0.0836 1.128952,-0.1255 1.170864,-0.35535 0.04191,-0.22984 -0.167184,-0.48076 -0.14634,-0.6691 0.02084,-0.18835 0.271746,-0.31381 0.418041,-0.52276 0.146295,-0.20895 0.188116,-0.50167 0.104605,-0.79437 -0.08351,-0.29269 -0.292596,-0.58541 -0.543469,-0.83637 -0.250873,-0.25096 -0.543578,-0.46003 -0.710999,-0.92001 -0.167422,-0.45998 -0.209244,-1.17087 -0.355566,-1.90267 -0.146321,-0.73181 -0.397219,-1.48452 -0.54363,-2.38364 -0.146411,-0.89912 -0.188234,-1.94456 -0.334564,-2.92727 -0.14633,-0.98272 -0.397232,-1.9027 -0.899021,-2.23742 -0.501789,-0.33473 -1.254497,-0.0838 -1.94447,0.0835 -0.689972,0.16729 -1.317231,0.25092 -1.965371,0.12556 -0.64814,-0.12536 -1.31722,-0.4599 -1.693749,0.64832 z"
       id="path6994"
       inkscape:path-effect="#path-effect6996"
       inkscape:original-d="m 88.069002,130.34715 c -0.0834,2.55117 -0.167,5.10208 -0.25091,7.65272 0.293,0.33481 0.58572,0.66935 0.87819,1.00363 0.753,1.46393 1.50572,2.92754 2.25818,4.39091 0.41845,0.0839 0.83662,0.16754 1.25454,0.25091 1.38029,0.37663 2.76026,0.75299 4.14001,1.12909 0.293,-0.20883 0.5857,-0.41792 0.87818,-0.62727 -0.20884,-0.25065 -0.41794,-0.50156 -0.62728,-0.75273 0.25117,-0.12519 0.50207,-0.25065 0.75271,-0.37637 0.0421,-0.29246 0.0839,-0.58518 0.12547,-0.87818 -0.20884,-0.29246 -0.41791,-0.58519 -0.62727,-0.87818 -0.29248,-0.20883 -0.58518,-0.41791 -0.87818,-0.62727 -0.0416,-0.71066 -0.0834,-1.42155 -0.12547,-2.13272 -0.25064,-0.75248 -0.50154,-1.50519 -0.75271,-2.25818 -0.0416,-1.04521 -0.0834,-2.09065 -0.12547,-3.13637 -0.25064,-0.91975 -0.50155,-1.83973 -0.75272,-2.75999 -0.75248,0.25118 -1.50519,0.50208 -2.25818,0.75273 -0.62702,0.0839 -1.25428,0.16753 -1.88181,0.25091 -0.66884,-0.33429 -1.33792,-0.66883 -2.00728,-1.00364 z" /><g
       transform="matrix(0.03527778,0,0,-0.03527778,65.879721,293.18039)"
       fill="#000000"
       stroke="none"
       id="g5828"><path
         d="m 1835,9029 c -38,-12 -104,-24 -146,-27 -55,-5 -83,-13 -98,-26 -12,-11 -46,-65 -76,-121 -29,-55 -68,-118 -84,-139 -35,-44 -40,-90 -20,-203 10,-55 9,-73 -6,-121 -16,-48 -16,-64 -7,-112 16,-78 15,-96 -10,-167 -20,-56 -21,-67 -10,-109 7,-26 21,-59 32,-74 32,-46 34,-73 6,-142 -32,-79 -36,-168 -8,-168 37,0 123,29 175,59 61,34 79,67 91,156 15,104 11,134 -22,168 -43,46 -49,62 -72,190 -19,106 -20,127 -9,239 6,68 11,137 11,153 -1,25 1,27 9,12 6,-9 14,-36 18,-60 9,-42 9,-42 10,-7 0,19 -8,55 -19,79 -11,24 -20,50 -20,57 0,30 41,94 63,99 35,9 101,-18 105,-43 2,-12 13,-27 25,-34 21,-11 21,-11 3,-18 -18,-6 -18,-7 -2,-13 27,-11 34,24 8,41 -12,8 -22,24 -22,36 0,40 61,-37 114,-145 46,-92 56,-106 101,-133 40,-25 61,-31 107,-31 h 57 l 7,-74 c 9,-103 -3,-231 -28,-287 -30,-68 -29,-167 2,-273 31,-105 50,-120 198,-166 136,-42 207,-54 200,-34 -3,8 -13,40 -22,73 -12,41 -30,72 -60,105 -58,62 -62,78 -31,135 31,59 31,90 0,141 -28,46 -31,92 -10,154 19,52 15,68 -37,149 l -41,63 7,104 c 7,104 7,106 -22,158 -16,28 -40,83 -53,121 -29,88 -64,139 -124,182 -49,34 -157,75 -199,73 -11,0 -52,-9 -91,-20 z"
         id="path5824"
         style="fill:#962444;fill-opacity:1;stroke:none;stroke-opacity:1" /><path
         d="m 1132,7581 c -103,-35 -181,-100 -226,-189 -25,-50 -65,-243 -76,-367 -5,-60 -9,-282 -10,-492 0,-274 -5,-410 -15,-480 -7,-54 -19,-174 -25,-268 -7,-107 -28,-268 -56,-434 -73,-435 -88,-484 -197,-624 -36,-45 -67,-91 -69,-102 -3,-18 3,-20 62,-21 44,-1 86,-10 133,-28 66,-25 72,-26 208,-20 77,4 142,11 145,16 3,5 -7,28 -22,51 -37,54 -38,62 -38,252 1,145 4,173 33,295 41,171 94,375 132,509 48,167 68,402 72,838 3,283 12,310 48,146 11,-48 31,-122 44,-164 38,-121 58,-245 53,-329 -5,-76 -6,-81 -104,-299 -40,-92 -147,-385 -169,-466 -7,-27 -26,-95 -41,-150 -27,-97 -28,-108 -29,-345 0,-237 1,-246 22,-280 27,-41 29,-75 7,-84 -14,-5 -16,-16 -11,-59 11,-91 48,-218 99,-342 27,-66 78,-192 113,-280 35,-88 82,-204 105,-259 53,-129 118,-367 131,-483 7,-60 8,-163 4,-295 -5,-112 -8,-309 -8,-438 v -235 l 37,-105 c 25,-72 44,-155 61,-266 13,-88 42,-230 64,-315 24,-91 41,-178 41,-210 0,-79 -18,-215 -37,-279 -20,-66 -21,-86 -5,-82 7,1 11,-4 10,-10 -2,-8 6,-13 19,-12 12,0 20,-3 17,-7 -6,-10 36,-21 85,-23 47,-1 160,52 140,66 -11,8 -10,9 3,4 9,-3 32,3 50,12 18,9 39,17 47,18 8,2 17,8 21,14 4,6 10,-14 14,-44 3,-31 16,-86 28,-122 19,-60 20,-69 7,-93 -36,-64 -132,-94 -222,-70 -41,11 -56,22 -78,54 -15,22 -25,43 -23,47 3,5 1,8 -5,8 -12,0 -31,-63 -31,-102 0,-40 35,-142 61,-179 43,-61 156,-149 190,-149 39,0 176,245 166,296 -3,20 1,27 19,34 23,9 61,73 83,142 7,20 23,44 37,52 13,9 24,21 24,26 0,5 -18,35 -40,66 -84,120 -108,259 -76,443 22,131 20,242 -6,354 -32,134 -32,370 0,477 61,201 65,238 61,490 -6,373 -3,450 26,625 33,193 139,589 189,702 20,45 36,96 36,115 0,18 12,58 26,88 24,50 94,279 94,305 0,7 9,20 20,30 11,10 20,23 20,28 0,6 -6,3 -13,-6 -10,-14 -12,-1 -14,75 -1,50 -4,101 -7,112 -3,16 6,30 36,54 35,28 48,32 97,32 61,0 86,-12 94,-45 4,-15 5,-14 6,7 1,36 -32,58 -89,58 -45,0 -122,-28 -135,-49 -16,-26 -32,10 -33,73 -1,36 -6,104 -12,153 -6,48 -9,122 -5,163 5,63 3,81 -14,116 -11,23 -28,72 -37,110 -9,38 -53,159 -96,269 -43,110 -81,219 -85,242 -7,55 18,163 77,332 26,75 67,202 90,283 24,81 46,145 50,143 4,-3 12,-24 19,-47 14,-55 1,-649 -15,-669 -16,-20 7,-243 45,-443 12,-60 21,-146 21,-190 0,-45 5,-108 10,-141 18,-109 14,-227 -8,-271 -23,-46 -35,-91 -27,-104 8,-13 66,23 60,38 -2,6 2,12 10,12 8,0 15,8 16,18 0,11 2,12 6,4 3,-7 0,-19 -7,-27 -10,-12 -7,-13 22,-5 92,27 158,-4 158,-74 0,-49 22,-59 77,-34 25,11 53,28 63,38 19,19 19,20 0,42 -16,19 -19,20 -20,6 0,-10 -4,-18 -10,-18 -14,0 -12,16 4,29 11,10 19,7 36,-11 11,-13 19,-31 16,-40 -2,-10 1,-18 9,-18 7,0 27,-3 44,-6 25,-5 31,-3 31,10 0,13 -5,16 -22,10 -20,-6 -21,-5 -9,10 12,14 11,19 -2,34 -9,10 -28,38 -42,63 -65,116 -86,164 -100,221 -30,133 -40,667 -13,684 5,3 5,11 -1,18 -18,21 -17,242 1,361 13,86 18,194 20,490 4,629 -23,742 -200,823 -37,17 -83,35 -101,38 -34,7 -34,7 -25,-22 27,-86 -12,-269 -77,-367 -47,-71 -148,-149 -288,-222 -69,-36 -162,-93 -207,-126 -68,-51 -88,-72 -124,-135 -51,-89 -60,-84 -71,31 l -6,70 -2,-82 c 0,-45 3,-93 9,-108 8,-21 5,-35 -14,-72 l -23,-47 -15,25 c -36,57 -36,60 -12,97 17,25 24,48 23,81 -1,46 -3,47 -13,1 -3,-14 -15,-40 -26,-58 l -20,-33 -27,31 c -20,24 -28,28 -35,18 -7,-9 -8,-8 -4,6 5,13 -14,44 -70,112 -42,52 -90,104 -107,116 -18,12 -33,26 -35,30 -2,4 -45,37 -95,74 -140,103 -165,129 -173,183 -4,25 -9,50 -11,54 -6,9 -14,129 -13,181 0,15 -5,35 -12,44 -10,12 -10,14 0,8 7,-4 13,-2 14,6 3,30 9,50 34,106 8,18 14,34 14,36 0,7 -35,1 -78,-13 z"
         id="path5826" /></g><path
       style="opacity:0.996;fill:#452e7f;fill-opacity:1;stroke:none;stroke-width:2"
       d="m 166.94527,125.22978 c -0.0887,0.20704 -0.26615,0.62103 -0.23652,1.36777 0.0296,0.74674 0.26619,1.82603 0.25135,2.75001 -0.0148,0.92399 -0.28096,1.69279 -0.51751,2.18802 -0.23654,0.49523 -0.44352,0.717 -0.5248,0.93153 -0.0813,0.21453 -0.0369,0.42152 -0.14045,0.63574 -0.10352,0.21422 -0.35486,0.43599 -1.17538,0.83517 -0.82052,0.39918 -2.21027,0.97578 -3.17873,1.42672 -0.96845,0.45095 -1.51548,0.77621 -1.95166,1.06453 -0.43617,0.28832 -0.76144,0.53967 -0.96099,0.5694 -0.19956,0.0297 -0.27348,-0.16245 -0.26618,-0.45822 0.007,-0.29576 0.096,-0.69495 0.0887,-0.9832 -0.007,-0.28825 -0.11077,-0.46566 -0.13306,-0.63577 -0.0223,-0.17011 0.0368,-0.33275 0.38431,-0.81333 0.34747,-0.48058 0.98321,-1.27895 1.50068,-1.97383 0.51746,-0.69488 0.91665,-1.28626 1.21974,-1.84066 0.30309,-0.5544 0.51007,-1.07186 0.63576,-1.61886 0.1257,-0.547 0.17005,-1.1236 0.10356,-1.73715 -0.0665,-0.61355 -0.24389,-1.26407 -0.46556,-1.64857 -0.22166,-0.3845 -0.48779,-0.50277 -0.67278,-0.37708 -0.18499,0.12569 -0.28848,0.49532 -0.29584,1.05721 -0.007,0.56189 0.0814,1.31591 0.12569,1.84076 0.0443,0.52485 0.0443,0.82055 -0.28092,1.24918 -0.32526,0.42862 -0.97578,0.99044 -1.36745,1.26398 -0.39167,0.27354 -0.52473,0.25874 -0.52489,-0.0812 -1.7e-4,-0.33998 0.1329,-1.00529 0.14773,-1.68536 0.0148,-0.68007 -0.0887,-1.37495 -0.24389,-2.02548 -0.15521,-0.65053 -0.3622,-1.2567 -0.36228,-1.78167 -8e-5,-0.52496 0.20691,-0.96851 0.51006,-1.33082 0.30315,-0.36232 0.70233,-0.64322 1.23465,-0.87979 0.53233,-0.23656 1.19765,-0.42877 1.83345,-0.53225 0.63579,-0.10348 1.24195,-0.11828 1.80382,-0.007 0.56187,0.11097 1.07933,0.34752 1.31572,0.70241 0.23638,0.35488 0.19203,0.82799 0.21425,1.27897 0.0222,0.45099 0.11094,0.87974 0.29586,1.10136 0.18492,0.22162 0.46582,0.23639 0.71703,0.14027 0.25121,-0.0961 0.47298,-0.30312 0.63575,-0.35472 0.16276,-0.0516 0.26626,0.0519 0.31787,0.1035 0.0516,0.0516 0.0516,0.0517 -0.0371,0.25879 z"
       id="path7782"
       inkscape:path-effect="#path-effect7784"
       inkscape:original-d="m 167.03401,125.02273 c -0.17713,0.41424 -0.35456,0.82822 -0.53226,1.24193 0.23683,1.07959 0.4734,2.15887 0.70969,3.23791 -0.26588,0.76909 -0.53199,1.53789 -0.79838,2.30645 -0.20674,0.22204 -0.41372,0.44381 -0.62097,0.66532 0.0446,0.20726 0.089,0.41424 0.13306,0.62097 -0.25109,0.22204 -0.50242,0.44381 -0.75404,0.66532 -1.38954,0.57689 -2.77929,1.15349 -4.16936,1.72984 -0.54678,0.32554 -1.09381,0.6508 -1.64113,0.9758 -0.32499,0.25162 -0.65026,0.50296 -0.97578,0.75404 -0.0737,-0.19195 -0.14759,-0.38415 -0.2218,-0.57662 0.089,-0.39893 0.17769,-0.79812 0.26614,-1.19758 -0.10324,-0.17715 -0.20672,-0.35457 -0.31049,-0.53225 0.0594,-0.16238 0.11856,-0.32501 0.17743,-0.48791 0.63604,-0.79814 1.27178,-1.59651 1.90725,-2.39516 0.39947,-0.59114 0.79865,-1.18253 1.19759,-1.77419 0.20724,-0.51722 0.41423,-1.03468 0.62097,-1.55242 0.0446,-0.57636 0.089,-1.15296 0.13306,-1.72984 -0.17716,-0.65029 -0.35457,-1.30081 -0.53226,-1.95161 -0.26588,-0.11802 -0.532,-0.2363 -0.79838,-0.35484 -0.10324,0.36989 -0.20675,0.73951 -0.31049,1.10887 0.089,0.75431 0.17767,1.50833 0.26612,2.2621 2.6e-4,0.29596 2.6e-4,0.59166 0,0.88709 -0.65027,0.56211 -1.3008,1.12392 -1.95159,1.68549 -0.13282,-0.0145 -0.26588,-0.0293 -0.39921,-0.0444 0.13333,-0.66507 0.26639,-1.33038 0.39921,-1.99597 -0.10324,-0.69464 -0.20675,-1.38952 -0.31049,-2.08467 -0.20675,-0.60593 -0.41373,-1.2121 -0.62098,-1.81855 0.20725,-0.44329 0.41426,-0.88683 0.62098,-1.33065 0.39947,-0.28065 0.79864,-0.56156 1.19758,-0.84274 0.66559,-0.19194 1.33091,-0.38414 1.99597,-0.57661 0.60645,-0.0145 1.21261,-0.0293 1.81853,-0.0444 0.51776,0.23683 1.03521,0.47339 1.55242,0.70968 -0.0441,0.47339 -0.0884,0.9465 -0.13306,1.41936 0.089,0.42903 0.17769,0.85779 0.26614,1.28629 0.28117,0.0151 0.56208,0.0298 0.84273,0.0443 0.22203,-0.20673 0.44381,-0.41371 0.66532,-0.62097 0.10377,0.10376 0.20727,0.20726 0.31048,0.31049 z" /><path
       style="opacity:0.996;fill:#452e7f;fill-opacity:1;stroke:#962444;stroke-width:2;stroke-opacity:1"
       d="m 83.018799,-25.548907 c 0,0 90.829001,307.614257 90.829001,307.614257"
       id="path16682"
       inkscape:path-effect="#path-effect16684"
       inkscape:original-d="M 83.018799,-25.548907 173.8478,282.06535" /><path
       style="opacity:0.996;fill:#452e7f;fill-opacity:1;stroke:#962444;stroke-width:2;stroke-opacity:1"
       d="m 174.09871,-25.297999 c 0,0 -90.829,307.614259 -90.829,307.614259"
       id="path16682-7"
       inkscape:path-effect="#path-effect16684-5"
       inkscape:original-d="M 174.09871,-25.297999 83.26971,282.31626" /></g></svg>
