<?xml version="1.0" encoding="UTF-8" standalone="no"?>
<svg
   version="1.1"
   id="Layer_1"
   x="0px"
   y="0px"
   width="215.19798"
   height="263.27072"
   viewBox="0 0 213.046 260.55659"
   enable-background="new 0 0 396 288"
   xml:space="preserve"
   sodipodi:docname="UML_logo.svg"
   inkscape:version="1.2.2 (732a01da63, 2022-12-09)"
   xmlns:inkscape="http://www.inkscape.org/namespaces/inkscape"
   xmlns:sodipodi="http://sodipodi.sourceforge.net/DTD/sodipodi-0.dtd"
   xmlns="http://www.w3.org/2000/svg"
   xmlns:svg="http://www.w3.org/2000/svg"><defs
   id="defs134" /><sodipodi:namedview
   id="namedview132"
   pagecolor="#505050"
   bordercolor="#eeeeee"
   borderopacity="1"
   inkscape:showpageshadow="0"
   inkscape:pageopacity="0"
   inkscape:pagecheckerboard="0"
   inkscape:deskcolor="#505050"
   showgrid="false"
   inkscape:zoom="2.0338432"
   inkscape:cx="143.8164"
   inkscape:cy="153.89583"
   inkscape:window-width="1920"
   inkscape:window-height="1017"
   inkscape:window-x="-8"
   inkscape:window-y="-8"
   inkscape:window-maximized="1"
   inkscape:current-layer="Layer_1" />
<polygon
   fill="#fbbd16"
   points="222.729,240.603 246.553,252.477 261.867,183.949 261.867,258.923 288.753,272.151 288.753,145.616 247.914,126.278 234.982,186.663 221.937,113.84 181.323,94.391 181.323,221.04 208.096,234.496 208.096,158.167 "
   id="polygon69"
   transform="translate(-181.323,-12.203)" />
<polygon
   fill="#452e7f"
   points="335.152,215.238 394.142,184.709 394.369,219.31 292.611,272.796 292.496,145.583 335.152,123.418 "
   id="polygon71"
   transform="translate(-181.323,-12.203)" />
<path
   fill="#962444"
   d="M 93.975,-0.045 63.812,26.624 c 0,0 58.851,30.25 66,33.825 7.15,3.574 17.325,10.449 6.325,20.625 -11,10.175 -23.1,8.8 -31.35,4.675 -8.25,-4.125 -69.3,-34.925 -69.3,-34.925 L 4.413,77.223 c 0,0 59.949,30.525 69.85,35.75 9.9,5.226 46.75,18.15 81.675,-9.075 34.925,-27.225 29.976,-37.125 29.976,-39.05 0,-1.925 -0.825,-12.1 -6.875,-18.425 -6.051,-6.325 -23.65,-15.4 -31.075,-19.25 -7.425,-3.85 -53.989,-27.218 -53.989,-27.218 z"
   id="path73"
   style="stroke:#212121;stroke-opacity:1;stroke-width:2.96999996;stroke-dasharray:none" />























<g
   id="g123"
   transform="translate(-181.323,-12.203)">
	
</g>
<g
   id="g129"
   transform="translate(-181.323,-12.203)">
	
	
</g>
</svg>
