<?xml version="1.0" encoding="UTF-8" standalone="no"?>
<!-- Created with Inkscape (http://www.inkscape.org/) -->

<svg
   width="192.35719mm"
   height="62.784355mm"
   viewBox="0 0 192.35719 62.784355"
   version="1.1"
   id="svg4766"
   xml:space="preserve"
   inkscape:version="1.2.2 (732a01da63, 2022-12-09)"
   sodipodi:docname="containerj2eeTechnologyTomcat.svg"
   xmlns:inkscape="http://www.inkscape.org/namespaces/inkscape"
   xmlns:sodipodi="http://sodipodi.sourceforge.net/DTD/sodipodi-0.dtd"
   xmlns:xlink="http://www.w3.org/1999/xlink"
   xmlns="http://www.w3.org/2000/svg"
   xmlns:svg="http://www.w3.org/2000/svg"><sodipodi:namedview
     id="namedview4768"
     pagecolor="#505050"
     bordercolor="#eeeeee"
     borderopacity="1"
     inkscape:showpageshadow="0"
     inkscape:pageopacity="0"
     inkscape:pagecheckerboard="0"
     inkscape:deskcolor="#505050"
     inkscape:document-units="mm"
     showgrid="false"
     inkscape:zoom="1.4912878"
     inkscape:cx="453.63476"
     inkscape:cy="142.82957"
     inkscape:window-width="1920"
     inkscape:window-height="1017"
     inkscape:window-x="-8"
     inkscape:window-y="-8"
     inkscape:window-maximized="1"
     inkscape:current-layer="layer1" /><defs
     id="defs4763"><inkscape:perspective
       sodipodi:type="inkscape:persp3d"
       inkscape:vp_x="0 : 517.48766 : 1"
       inkscape:vp_y="0 : 1000.0001 : 0"
       inkscape:vp_z="744.09446 : 517.48766 : 1"
       inkscape:persp3d-origin="372.04723 : 342.09394 : 1"
       id="perspective14675" /><inkscape:perspective
       id="perspective14646"
       inkscape:persp3d-origin="0.49999999 : -8.3601329 : 1"
       inkscape:vp_z="0.99999997 : -8.1934663 : 1"
       inkscape:vp_y="0 : 1000.0001 : 0"
       inkscape:vp_x="0 : -8.1934663 : 1"
       sodipodi:type="inkscape:persp3d" /><linearGradient
       inkscape:collect="always"
       xlink:href="#linearGradient3884"
       id="linearGradient5000"
       gradientUnits="userSpaceOnUse"
       x1="268.98013"
       y1="534.19055"
       x2="239.375"
       y2="572.36218" /><linearGradient
       inkscape:collect="always"
       id="linearGradient3884"><stop
         style="stop-color:#ffffff;stop-opacity:1;"
         offset="0"
         id="stop3886" /><stop
         style="stop-color:#ffffff;stop-opacity:0;"
         offset="1"
         id="stop3888" /></linearGradient><inkscape:perspective
       id="perspective14827"
       inkscape:persp3d-origin="0.49999999 : -8.3601329 : 1"
       inkscape:vp_z="0.99999997 : -8.1934663 : 1"
       inkscape:vp_y="0 : 1000.0001 : 0"
       inkscape:vp_x="0 : -8.1934663 : 1"
       sodipodi:type="inkscape:persp3d" /><inkscape:perspective
       id="perspective14849"
       inkscape:persp3d-origin="0.49999999 : -8.3601329 : 1"
       inkscape:vp_z="0.99999997 : -8.1934663 : 1"
       inkscape:vp_y="0 : 1000.0001 : 0"
       inkscape:vp_x="0 : -8.1934663 : 1"
       sodipodi:type="inkscape:persp3d" /><inkscape:perspective
       id="perspective14883"
       inkscape:persp3d-origin="0.49999999 : -8.3601329 : 1"
       inkscape:vp_z="0.99999997 : -8.1934663 : 1"
       inkscape:vp_y="0 : 1000.0001 : 0"
       inkscape:vp_x="0 : -8.1934663 : 1"
       sodipodi:type="inkscape:persp3d" /><inkscape:perspective
       id="perspective14910"
       inkscape:persp3d-origin="0.49999999 : -8.3601329 : 1"
       inkscape:vp_z="0.99999997 : -8.1934663 : 1"
       inkscape:vp_y="0 : 1000.0001 : 0"
       inkscape:vp_x="0 : -8.1934663 : 1"
       sodipodi:type="inkscape:persp3d" /></defs><g
     inkscape:label="Layer 1"
     inkscape:groupmode="layer"
     id="layer1"
     transform="translate(-1.424129,-46.651211)"><rect
       style="fill:#526abc;fill-opacity:1;stroke:none;stroke-width:0.72807;stroke-dasharray:none;stroke-opacity:1"
       id="rect42271"
       width="65.645157"
       height="56.951611"
       x="45.106033"
       y="46.651211" /><g
       id="g447"
       transform="matrix(0.51370225,0,0,0.51370225,108.57608,63.866411)"><path
         fill="#000000"
         fill-opacity="0.701961"
         stroke-width="0.2"
         stroke-linejoin="round"
         d="m 38,33 c 9.384,0 16.9921,-2.0126 17,-4.4961 V 52.5 C 55,54.9853 47.3888,57 38,57 v -7.8421 l 0.0675,0.0021 1.1625,1.2537 c 0.3733,0.3892 0.7571,0.728 1.1513,1.0163 0.3941,0.2883 0.8062,0.5154 1.2362,0.6813 0.43,0.1658 0.9008,0.2487 1.4125,0.2487 L 44.1075,52.2913 44.8,52.155 v -2.07 L 44.5425,50.1663 44.25,50.2288 43.9487,50.2675 43.675,50.28 42.8237,50.215 42.0613,49.9813 41.3237,49.5213 40.55,48.7775 C 41.635,48.3892 42.4808,47.72 43.0875,46.77 43.6958,45.81 44,44.6633 44,43.33 44,41.6233 43.5025,40.2508 42.5075,39.2125 41.5175,38.1642 40.2233,37.64 38.625,37.64 L 38,37.6653 Z m 14,-9.5 h 3 v 2 C 55,27.9853 47.3888,30 38,30 v -5 c 7.732,0 14,-0.6715 14,-1.5 z M 38.5375,39.88 c 0.86,0 1.5325,0.3192 2.0175,0.9575 0.4833,0.6283 0.725,1.5025 0.725,2.6225 0,1.08 -0.2525,1.9292 -0.7575,2.5475 C 40.0242,46.6158 39.3417,46.92 38.475,46.92 L 38,46.8837 V 39.9251 Z M 52.48,49 V 46.92 H 48.32 V 37.8 H 45.76 V 49 Z"
         id="path435"
         style="fill:#000000;fill-opacity:1" /><path
         fill="#000000"
         fill-opacity="1"
         stroke-width="0.2"
         stroke-linejoin="round"
         d="M 38,57 C 28.6111,57 21,54.9853 21,52.5 v -24 c 0,2.4853 7.6112,4.5 17,4.5 v 4.6436 c -1.4391,0.1153 -2.6124,0.6524 -3.52,1.6113 -1.0267,1.085 -1.54,2.5117 -1.54,4.28 0,0.7734 0.1216,1.4975 0.365,2.1725 0.2433,0.675 0.5879,1.263 1.0337,1.7638 0.4459,0.5008 0.9829,0.8991 1.6113,1.195 0.6154,0.2897 1.2987,0.4472 2.05,0.4723 z M 55,23.5 H 52 C 52,22.6716 45.732,22 38,22 c -7.732,0 -14,0.6716 -14,1.5 0,0.8285 6.268,1.5 14,1.5 v 5 C 28.6111,30 21,27.9853 21,25.5 v -2 c 0,-2.4852 7.6112,-4.5 17,-4.5 9.384,0 16.9921,2.0127 17,4.5 z M 24.14,48.5324 c 0.4083,0.2017 0.8912,0.3534 1.4487,0.455 0.5575,0.1017 1.1454,0.1525 1.7638,0.1525 0.6016,0 1.1733,-0.057 1.715,-0.1712 0.5416,-0.1142 1.0166,-0.3021 1.425,-0.5638 0.4083,-0.2616 0.7316,-0.6033 0.97,-1.025 0.2383,-0.4216 0.3575,-0.9433 0.3575,-1.565 0,-0.45 -0.0667,-0.8445 -0.2,-1.1837 -0.1334,-0.3392 -0.3259,-0.6408 -0.5775,-0.905 -0.2517,-0.2642 -0.5534,-0.5013 -0.905,-0.7113 l -1.19,-0.595 -0.87,-0.3912 -0.655,-0.3888 -0.4163,-0.4187 C 26.9087,41.0737 26.86,40.9066 26.86,40.7199 c 0,-0.1783 0.0437,-0.3395 0.1312,-0.4837 l 0.37,-0.3713 0.5863,-0.24 0.77,-0.085 0.6525,0.0475 0.69,0.1475 0.675,0.2525 0.605,0.3525 v -2.2975 c -0.38,-0.1433 -0.7955,-0.2495 -1.2463,-0.3187 l -1.5512,-0.1038 c -0.595,0 -1.1584,0.0634 -1.69,0.19 -0.5317,0.1267 -0.9996,0.325 -1.4038,0.595 -0.4042,0.27 -0.7233,0.6134 -0.9575,1.03 -0.2342,0.4167 -0.3512,0.915 -0.3512,1.495 0,0.74 0.2116,1.3717 0.635,1.895 0.4233,0.5234 1.0666,0.9659 1.93,1.3275 l 0.9462,0.4125 0.7588,0.42 0.505,0.4738 c 0.1233,0.1708 0.185,0.3646 0.185,0.5812 l -0.1163,0.4675 c -0.0775,0.1434 -0.1954,0.268 -0.3537,0.3738 l -0.5913,0.2487 -0.8287,0.09 c -0.5384,0 -1.0717,-0.0933 -1.6,-0.28 -0.5284,-0.1866 -1.0184,-0.4666 -1.47,-0.84 z m 12.2925,-7.7 C 36.8449,40.3182 37.3674,40.0079 38,39.9016 v 6.9651 c -0.6317,-0.0958 -1.1567,-0.3989 -1.575,-0.9093 -0.51,-0.6333 -0.765,-1.4875 -0.765,-2.5625 0,-1.065 0.2575,-1.9191 0.7725,-2.5625 z"
         id="path437" /></g><rect
       style="fill:#2a2f9d;stroke-width:0.27812"
       id="rect32917"
       width="31.928915"
       height="8.9935493"
       x="1.424129"
       y="78.320564" /><text
       xml:space="preserve"
       style="font-size:3.52778px;line-height:1.25;font-family:Arial;-inkscape-font-specification:Arial;fill:#ffffff;fill-opacity:1;stroke-width:0.264583"
       x="1.7409523"
       y="83.730293"
       id="text32921"><tspan
         sodipodi:role="line"
         id="tspan32919"
         style="font-size:3.52778px;fill:#ffffff;fill-opacity:1;stroke-width:0.264583"
         x="1.7409523"
         y="83.730293">Navigateur/Browser</tspan></text><rect
       style="fill:#2a2f9d;fill-opacity:1;stroke-width:0.499999"
       id="rect33375"
       width="50.18177"
       height="30.861788"
       x="51.268757"
       y="68.736794" /><text
       xml:space="preserve"
       style="font-size:3.52778px;line-height:1.25;font-family:Arial;-inkscape-font-specification:Arial;stroke-width:0.264583"
       x="64.048386"
       y="77.727501"
       id="text33534"><tspan
         sodipodi:role="line"
         id="tspan33532"
         style="font-size:3.52778px;fill:#ffffff;fill-opacity:1;stroke-width:0.264583"
         x="64.048386"
         y="77.727501">Web Container</tspan></text><rect
       style="fill:#526abc;fill-opacity:1;stroke-width:0.499999"
       id="rect32923-1"
       width="14.725806"
       height="11.17742"
       x="56.153229"
       y="82.248009" /><text
       xml:space="preserve"
       style="font-size:3.52778px;line-height:1.25;font-family:Arial;-inkscape-font-specification:Arial;stroke-width:0.264583"
       x="60.307152"
       y="89.09935"
       id="text33567"><tspan
         sodipodi:role="line"
         id="tspan33565"
         style="font-size:3.52778px;stroke-width:0.264583"
         x="60.307152"
         y="89.09935">JSP</tspan></text><rect
       style="fill:#526abc;fill-opacity:1;stroke-width:0.499999"
       id="rect32923-1-1"
       width="14.725806"
       height="11.17742"
       x="79.910332"
       y="82.205971" /><text
       xml:space="preserve"
       style="font-size:3.52778px;line-height:1.25;font-family:Arial;-inkscape-font-specification:Arial;stroke-width:0.264583"
       x="82.201355"
       y="88.968597"
       id="text33567-6"><tspan
         sodipodi:role="line"
         id="tspan33565-8"
         style="font-size:3.52778px;stroke-width:0.264583"
         x="82.201355"
         y="88.968597">Servlet</tspan></text><path
       style="fill:#ea2d2e;fill-opacity:1;stroke:#000000;stroke-width:1;stroke-dasharray:none;stroke-opacity:1"
       d="M 33.79065,82.907541 H 50.287908"
       id="path57890" /><path
       sodipodi:type="star"
       style="fill:#000000;fill-opacity:1;stroke:#000000;stroke-width:3.77953;stroke-dasharray:none;stroke-opacity:1"
       id="path58086"
       inkscape:flatsided="false"
       sodipodi:sides="3"
       sodipodi:cx="176.35764"
       sodipodi:cy="136.79451"
       sodipodi:r1="4.0268588"
       sodipodi:r2="1.8858129"
       sodipodi:arg1="0"
       sodipodi:arg2="1.0471976"
       inkscape:rounded="0"
       inkscape:randomized="0"
       d="m 180.38449,136.79451 -3.08395,1.63316 -2.95633,1.8542 0.12761,-3.48736 -0.12761,-3.48736 2.95633,1.8542 z"
       transform="matrix(0.26458333,0,0,0.26458333,2.5372785,46.73992)"
       inkscape:transform-center-x="-0.26635936" /><path
       style="fill:#ea2d2e;fill-opacity:1;stroke:#000000;stroke-width:1;stroke-dasharray:none;stroke-opacity:1"
       d="M 101.58874,84.415608 H 118.086"
       id="path57890-6" /><path
       sodipodi:type="star"
       style="fill:#000000;fill-opacity:1;stroke:#000000;stroke-width:3.77953;stroke-dasharray:none;stroke-opacity:1"
       id="path58086-5"
       inkscape:flatsided="false"
       sodipodi:sides="3"
       sodipodi:cx="176.35764"
       sodipodi:cy="136.79451"
       sodipodi:r1="4.0268588"
       sodipodi:r2="1.8858129"
       sodipodi:arg1="0"
       sodipodi:arg2="1.0471976"
       inkscape:rounded="0"
       inkscape:randomized="0"
       d="m 180.38449,136.79451 -3.08395,1.63316 -2.95633,1.8542 0.12761,-3.48736 -0.12761,-3.48736 2.95633,1.8542 z"
       transform="matrix(0.26458333,0,0,0.26458333,70.335371,48.247987)"
       inkscape:transform-center-x="-0.26635936" /><g
       id="g162039"
       transform="matrix(0.12403134,0,0,0.13196759,59.968867,48.041043)"><g
         transform="translate(-8.71,-8.72)"
         id="g162003">
	<g
   id="cvfa">
		<path
   d="m 53.7,130 c 2.96,3.65 6.25,7.35 9.87,11.1 -10.5,3.17 -17.5,9.06 -21.8,14.3 -6.82,8.23 -10.4,19.1 -9.6,28.4 h -18.2 c 3.64,-7.9 18.2,-30.7 39.6,-53.8 z"
   fill="#d1a41a"
   id="path161964" />
		<path
   d="m 264,189 h -22.1 c -50.6,-26.4 -95.1,-45 -142,-49.1 0.1,-6.57 1.27,-14 3.52,-22.3 l -4.35,-1.17 c -2.31,8.52 -3.52,16.2 -3.66,23.1 -4.92,-0.33 -9.87,-0.49 -14.9,-0.49 -4.23,0 -8.09,0.391 -11.6,1.07 -4.59,-4.58 -8.5,-8.96 -11.8,-13.1 21.8,-22.7 57.6,-43.2 88.9,-50.9 8.79,29.2 27.7,49.2 50.6,62.7 1.68,-0.96 3.33,-1.96 4.95,-3.02 l 40,43 1.75,-0.15 c 10.9,-0.939 17.1,4.98 18.8,6.82 1.21,1.34 1.93,2.57 2.33,3.54 z"
   fill="#d1a41a"
   id="path161966" />
		<path
   d="m 244,44.8 c 0.811,39.7 -19.4,71.3 -47.8,87.5 -48.1,-24 -57.2,-84.7 -49,-117 2.28,12.5 6.43,20.3 15.4,24.1 19.5,-5.59 46.4,-6.03 66.2,-0.57 8.25,-6 11.5,-15.2 13.2,-23.2 2.18,9.32 1.93,29.5 1.94,29.5 z"
   fill="#ffdc76"
   id="path161968" />
	</g>


	<polygon
   points="123,82.4 131,104 109,89.2 "
   id="polygon161971" />
	<polygon
   points="102,91.9 110,106 93.3,97.1 "
   id="polygon161973" />
	<polygon
   points="84,103 87.8,116 76.4,108 "
   id="polygon161975" />
	<polygon
   points="206,139 199,150 211,144 "
   id="polygon161977" />
	<polygon
   points="217,152 205,160 221,156 "
   id="polygon161979" />
	<polygon
   points="189,33.5 197,52 203,33.2 "
   id="polygon161981" />
	<polygon
   points="146,60.4 160,67.5 148,68.3 "
   id="polygon161983" />
	<polygon
   points="150,74.8 158,78.1 151,80 "
   id="polygon161985" />
	<polygon
   points="245,65.6 234,70.2 243,71.6 "
   id="polygon161987" />
	<polygon
   points="240,78.9 232,81.3 239,83.8 "
   id="polygon161989" />


	<rect
   x="142"
   y="99.300003"
   width="26.200001"
   height="3.24"
   id="rect161991" />
	<rect
   x="142"
   y="91.5"
   width="26.200001"
   height="3.24"
   id="rect161993" />
	<rect
   x="222"
   y="99.300003"
   width="26.200001"
   height="3.24"
   id="rect161995" />
	<rect
   x="222"
   y="91.5"
   width="26.200001"
   height="3.24"
   id="rect161997" />
	
		<path
   d="m 213,72.3 h -42.8 v -2.92 h 13.3 c 1.64,-7.02 1.96,-13.7 -0.0137,-17.1 -0.844,-1.45 -2.01,-2.12 -3.67,-2.12 -7.61,0 -10.8,8.05 -10.9,8.39 l 0.002,-0.002 -2.73,-1.02 c 0.156,-0.42 3.96,-10.3 13.6,-10.3 2.69,0 4.83,1.24 6.19,3.57 2.41,4.14 2.13,11.3 0.494,18.6 h 23.4 c 3.1,-9.12 9.58,-13.4 20.4,-13.4 v 2.92 c -11.7,0 -15,4.97 -17.4,10.5 h 12.7 l -0.0293,2.9 z"
   id="path161999" />
		<path
   d="m 215,86.7 0.0186,-0.0029 c -3.46,-5.1 -4.55,-9.46 -3.11,-14.4 l -2.97,0.0146 c -1.04,3.3 -0.62,8.27 1.93,12.5 h -29.7 c 1.81,-3.62 3.48,-8.03 4.7,-12.5 h -3.02 c -1.35,4.79 -3.24,9.52 -5.37,13.3 l -0.689,1.21 16.7,10.5 -9.38,6.18 1.61,2.44 10.5,-6.91 11.3,7.38 1.55,-2.47 -10.5,-6.49 c 0,0 15.7,-10.2 16.5,-10.7 -0.005,-0.0068 -0.008,-0.0127 -0.0127,-0.0186 z m -18.9,8.81 -12.3,-7.75 24.1,0.0059 z"
   id="path162001" />
	
</g><g
         transform="matrix(0.99,0,0,0.996,-7.52,-8)"
         id="g162009">
	<path
   d="m 249,41.3 c -0.0185,-5.07 -1.6,-26.5 -4.5,-32.4 -7.87,2.99 -22.2,12.7 -25.4,22.6 -15.5,-2.32 -33,-2.04 -48.4,0.609 -2.56,-10.7 -15.4,-18.8 -25.1,-23.4 -4.09,6.91 -5.91,22.9 -5.44,34.3 -0.0176,0.0117 -0.0366,0.0234 -0.0542,0.0361 1.8,47.7 25.2,77.4 55.8,95.4 31.5,-18 54,-53.1 53.1,-97.1 0.0127,0.0078 0.0264,0.0137 0.0381,0.0215 z m -26.2,-9.2 c 0.114,0.0205 0.229,0.042 0.344,0.0635 C 223.03,32.142 222.915,32.1205 222.8,32.1 Z m -1.96,-0.338 c 0.275,0.044 0.554,0.0938 0.83,0.141 -0.276,-0.0469 -0.553,-0.0947 -0.83,-0.141 z m 23.3,13 c 0.81,39.7 -19.4,71.3 -47.8,87.5 -48.1,-24 -57.2,-84.7 -49,-117 2.28,12.5 6.42,20.3 15.4,24.1 19.5,-5.59 46.4,-6.03 66.2,-0.569 8.25,-6 11.5,-15.2 13.2,-23.2 2.18,9.32 1.93,29.5 1.94,29.5 z"
   id="path162005" />
	<path
   d="m 265,182 c -4.94,-5.53 -14.6,-8.14 -22.7,-7.95 -5.74,-6.83 -39,-41.9 -39,-41.9 l -2.31,2.9 40.2,43.2 1.74,-0.149 c 10.9,-0.935 17.1,4.98 18.8,6.82 1.2,1.35 1.93,2.58 2.33,3.54 h -22.1 c -50.6,-26.4 -95.1,-45 -142,-49.1 0.104,-6.57 1.27,-14 3.52,-22.3 l -4.34,-1.18 c -2.31,8.52 -3.52,16.2 -3.66,23.1 -4.92,-0.326 -9.87,-0.495 -14.9,-0.495 -4.24,0 -8.1,0.394 -11.6,1.08 -4.59,-4.59 -8.5,-8.96 -11.8,-13.1 21.9,-22.8 58.1,-43.5 89.5,-51.1 l -1.02,-4.4 c -33.8,8.15 -70.8,30.3 -91.4,51.8 -9.56,-12.9 -13.4,-23.5 -14.5,-31.5 -1.42,-10.1 0.997,-19.4 7,-26.9 9.4,-11.7 22.7,-12.5 36.5,-10.2 -0.268,2.17 0.0171,4.24 0.885,5.52 3.63,5.36 23.1,7.25 34.8,2.05 -8.6,-12 -26,-17.9 -30.8,-15.6 -1.6,0.78 -2.8,2.21 -3.63,3.89 -4.75,-0.849 -9.46,-1.48 -12.9,-1.46 -12.1,0.0889 -21.4,4.32 -28.3,12.9 -6.8,8.45 -9.55,18.9 -7.95,30.3 1.52,10.8 6.86,22.3 15.8,34.2 -1.49,1.6 -2.93,3.17 -4.31,4.72 -21.8,24.4 -37.8,50.7 -37.8,55 v 2.25 h 28.8 l -0.505,-2.67 c -1.63,-8.6 1.62,-19.4 8.28,-27.4 4.18,-5.04 11.1,-10.8 22,-13.5 9.66,9.43 22,19.4 35.7,29.1 h 21.4 v -2.25 c 0,-2.54 -1.26,-4.76 -3.54,-6.26 -3.38,-2.21 -8.6,-2.52 -13.4,-0.881 -4.57,-5.09 -7.14,-11.9 -7.69,-20.3 46.5,4.12 90.9,22.9 141,49.1 h 27.6 l 0.361,-1.81 c 0.516,-2.58 -0.888,-6.03 -3.75,-9.23 z M 42,155.2 c -6.82,8.23 -10.4,19.1 -9.6,28.4 H 14.2 c 3.65,-7.89 18.2,-30.7 39.6,-53.8 2.96,3.66 6.25,7.35 9.87,11.1 -10.5,3.17 -17.5,9.06 -21.8,14.3 z"
   id="path162007" />
</g></g></g></svg>
