<?xml version="1.0" encoding="UTF-8" standalone="no"?>
<!-- Created with Inkscape (http://www.inkscape.org/) -->

<svg
   width="211.66652mm"
   height="211.04741mm"
   viewBox="0 0 211.66652 211.04741"
   version="1.1"
   id="svg34223"
   xml:space="preserve"
   inkscape:version="1.2.2 (732a01da63, 2022-12-09)"
   sodipodi:docname="onion.svg"
   xmlns:inkscape="http://www.inkscape.org/namespaces/inkscape"
   xmlns:sodipodi="http://sodipodi.sourceforge.net/DTD/sodipodi-0.dtd"
   xmlns="http://www.w3.org/2000/svg"
   xmlns:svg="http://www.w3.org/2000/svg"><sodipodi:namedview
     id="namedview34225"
     pagecolor="#505050"
     bordercolor="#eeeeee"
     borderopacity="1"
     inkscape:showpageshadow="0"
     inkscape:pageopacity="0"
     inkscape:pagecheckerboard="0"
     inkscape:deskcolor="#505050"
     inkscape:document-units="mm"
     showgrid="false"
     inkscape:zoom="0.52724989"
     inkscape:cx="23.707924"
     inkscape:cy="491.22818"
     inkscape:window-width="1920"
     inkscape:window-height="1017"
     inkscape:window-x="-8"
     inkscape:window-y="-8"
     inkscape:window-maximized="1"
     inkscape:current-layer="layer1" /><defs
     id="defs34220" /><g
     inkscape:label="Layer 1"
     inkscape:groupmode="layer"
     id="layer1"
     transform="translate(-56.328028,-10.153711)"><g
       id="g34736"
       transform="matrix(0.42618622,0,0,0.42618622,56.328171,9.8443001)"><path
         style="fill:#6875c9;fill-opacity:1"
         d="m 248.326,0.726 c -32,88 -222.4,160 -245.6,278.4 -23.2,117.6 105.6,216.8 236.8,216.8 3.2,0 9.6,0 9.6,0 V 0.726 Z"
         id="path34707" /><path
         style="fill:#4a57b9;fill-opacity:1"
         d="m 248.326,42.326 c -32,75.2 -189.6,136 -209.6,237.6 -20,100 90.4,184.8 201.6,184.8 2.4,0 8,0 8,0 z"
         id="path34709" /><path
         style="fill:#383fa6;fill-opacity:1"
         d="m 248.326,81.526 c -24,63.2 -148.8,114.4 -164.8,199.2 -16,84 71.2,155.2 159.2,155.2 2.4,0 6.4,0 6.4,0 v -354.4 z"
         id="path34711" /><path
         style="fill:#2c3193;fill-opacity:1"
         d="m 248.326,143.126 c -16,44.8 -105.6,80.8 -116.8,141.6 -11.2,60 50.4,109.6 112.8,109.6 1.6,0 4,0 4,0 z"
         id="path34713" /><path
         style="fill:#1b208b;fill-opacity:1"
         d="m 248.326,207.926 c -8,27.2 -64,48.8 -70.4,85.6 -6.4,36 30.4,66.4 68,66.4 0.8,0 2.4,0 2.4,0 z"
         id="path34715" /><path
         style="fill:#4a3c93;fill-opacity:1"
         d="m 248.326,0.726 c 32,88 222.4,160 245.6,278.4 23.2,117.6 -105.6,216.8 -236.8,216.8 -3.2,0 -9.6,0 -9.6,0 V 0.726 Z"
         id="path34717" /><path
         style="fill:#574faa;fill-opacity:1"
         d="m 248.326,0.726 c 16,88 122.4,160 135.2,278.4 12.8,117.6 -58.4,216.8 -130.4,216.8 -1.6,0 -4.8,0 -4.8,0 z"
         id="path34719" /><path
         style="fill:#675ac3;fill-opacity:1"
         d="m 248.326,0.726 c 8,88 44,160 48.8,278.4 4.8,117.6 -20.8,216.8 -47.2,216.8 -0.8,0 -1.6,0 -1.6,0 z"
         id="path34721" /></g></g></svg>
